# Exported from Figuro at https://www.figuro.io

mtllib chest15_grid.mtl
g grid12
v -499.55521069922395 10 501.6434631855049
v -440.73168128745925 10 501.6434631855049
v -440.73168128745925 10 442.8199337737403
v -499.55521069922395 10 442.8199337737403
v -381.90815187569456 10 501.6434631855049
v -381.90815187569456 10 442.8199337737403
v -323.0846224639298 10 501.6434631855049
v -323.0846224639298 10 442.8199337737403
v -264.2610930521651 10 501.6434631855049
v -264.2610930521651 10 442.8199337737403
v -205.43756364040038 10 501.6434631855049
v -205.43756364040038 10 442.8199337737403
v -146.61403422863566 10 501.6434631855049
v -146.61403422863566 10 442.8199337737403
v -87.79050481687092 10 501.6434631855049
v -87.79050481687092 10 442.8199337737403
v -28.96697540510618 10 501.6434631855049
v -28.96697540510618 10 442.8199337737403
v 29.856554006658506 10 501.6434631855049
v 29.856554006658506 10 442.8199337737403
v 88.68008341842318 10 501.6434631855049
v 88.68008341842318 10 442.8199337737403
v 147.50361283018788 10 501.6434631855049
v 147.50361283018788 10 442.8199337737403
v 206.32714224195257 10 501.6434631855049
v 206.32714224195257 10 442.8199337737403
v 265.15067165371727 10 501.6434631855049
v 265.15067165371727 10 442.8199337737403
v 323.97420106548196 10 501.6434631855049
v 323.97420106548196 10 442.8199337737403
v 382.7977304772466 10 501.6434631855049
v 382.7977304772466 10 442.8199337737403
v 441.6212598890113 10 501.6434631855049
v 441.6212598890113 10 442.8199337737403
v 500.444789300776 10 501.6434631855049
v 500.444789300776 10 442.8199337737403
v -440.73168128745925 10 383.9964043619755
v -499.55521069922395 10 383.9964043619755
v -381.90815187569456 10 383.9964043619755
v -323.0846224639298 10 383.9964043619755
v -264.2610930521651 10 383.9964043619755
v -205.43756364040038 10 383.9964043619755
v -146.61403422863566 10 383.9964043619755
v -87.79050481687092 10 383.9964043619755
v -28.96697540510618 10 383.9964043619755
v 29.856554006658506 10 383.9964043619755
v 88.68008341842318 10 383.9964043619755
v 147.50361283018788 10 383.9964043619755
v 206.32714224195257 10 383.9964043619755
v 265.15067165371727 10 383.9964043619755
v 323.97420106548196 10 383.9964043619755
v 382.7977304772466 10 383.9964043619755
v 441.6212598890113 10 383.9964043619755
v 500.444789300776 10 383.9964043619755
v -440.73168128745925 10 325.1728749502108
v -499.55521069922395 10 325.1728749502108
v -381.90815187569456 10 325.1728749502108
v -323.0846224639298 10 325.1728749502108
v -264.2610930521651 10 325.1728749502108
v -205.43756364040038 10 325.1728749502108
v -146.61403422863566 10 325.1728749502108
v -87.79050481687092 10 325.1728749502108
v -28.96697540510618 10 325.1728749502108
v 29.856554006658506 10 325.1728749502108
v 88.68008341842318 10 325.1728749502108
v 147.50361283018788 10 325.1728749502108
v 206.32714224195257 10 325.1728749502108
v 265.15067165371727 10 325.1728749502108
v 323.97420106548196 10 325.1728749502108
v 382.7977304772466 10 325.1728749502108
v 441.6212598890113 10 325.1728749502108
v 500.444789300776 10 325.1728749502108
v -440.73168128745925 10 266.3493455384462
v -499.55521069922395 10 266.3493455384462
v -381.90815187569456 10 266.3493455384462
v -323.0846224639298 10 266.3493455384462
v -264.2610930521651 10 266.3493455384462
v -205.43756364040038 10 266.3493455384462
v -146.61403422863566 10 266.3493455384462
v -87.79050481687092 10 266.3493455384462
v -28.96697540510618 10 266.3493455384462
v 29.856554006658506 10 266.3493455384462
v 88.68008341842318 10 266.3493455384462
v 147.50361283018788 10 266.3493455384462
v 206.32714224195257 10 266.3493455384462
v 265.15067165371727 10 266.3493455384462
v 323.97420106548196 10 266.3493455384462
v 382.7977304772466 10 266.3493455384462
v 441.6212598890113 10 266.3493455384462
v 500.444789300776 10 266.3493455384462
v -440.73168128745925 10 207.5258161266815
v -499.55521069922395 10 207.5258161266815
v -381.90815187569456 10 207.5258161266815
v -323.0846224639298 10 207.5258161266815
v -264.2610930521651 10 207.5258161266815
v -205.43756364040038 10 207.5258161266815
v -146.61403422863566 10 207.5258161266815
v -87.79050481687092 10 207.5258161266815
v -28.96697540510618 10 207.5258161266815
v 29.856554006658506 10 207.5258161266815
v 88.68008341842318 10 207.5258161266815
v 147.50361283018788 10 207.5258161266815
v 206.32714224195257 10 207.5258161266815
v 265.15067165371727 10 207.5258161266815
v 323.97420106548196 10 207.5258161266815
v 382.7977304772466 10 207.5258161266815
v 441.6212598890113 10 207.5258161266815
v 500.444789300776 10 207.5258161266815
v -440.73168128745925 10 148.70228671491682
v -499.55521069922395 10 148.70228671491682
v -381.90815187569456 10 148.70228671491682
v -323.0846224639298 10 148.70228671491682
v -264.2610930521651 10 148.70228671491682
v -205.43756364040038 10 148.70228671491682
v -146.61403422863566 10 148.70228671491682
v -87.79050481687092 10 148.70228671491682
v -28.96697540510618 10 148.70228671491682
v 29.856554006658506 10 148.70228671491682
v 88.68008341842318 10 148.70228671491682
v 147.50361283018788 10 148.70228671491682
v 206.32714224195257 10 148.70228671491682
v 265.15067165371727 10 148.70228671491682
v 323.97420106548196 10 148.70228671491682
v 382.7977304772466 10 148.70228671491682
v 441.6212598890113 10 148.70228671491682
v 500.444789300776 10 148.70228671491682
v -440.73168128745925 10 89.87875730315213
v -499.55521069922395 10 89.87875730315213
v -381.90815187569456 10 89.87875730315213
v -323.0846224639298 10 89.87875730315213
v -264.2610930521651 10 89.87875730315213
v -205.43756364040038 10 89.87875730315213
v -146.61403422863566 10 89.87875730315213
v -87.79050481687092 10 89.87875730315213
v -28.96697540510618 10 89.87875730315213
v 29.856554006658506 10 89.87875730315213
v 88.68008341842318 10 89.87875730315213
v 147.50361283018788 10 89.87875730315213
v 206.32714224195257 10 89.87875730315213
v 265.15067165371727 10 89.87875730315213
v 323.97420106548196 10 89.87875730315213
v 382.7977304772466 10 89.87875730315213
v 441.6212598890113 10 89.87875730315213
v 500.444789300776 10 89.87875730315213
v -440.73168128745925 10 31.05522789138745
v -499.55521069922395 10 31.05522789138745
v -381.90815187569456 10 31.05522789138745
v -323.0846224639298 10 31.05522789138745
v -264.2610930521651 10 31.05522789138745
v -205.43756364040038 10 31.05522789138745
v -146.61403422863566 10 31.05522789138745
v -87.79050481687092 10 31.05522789138745
v -28.96697540510618 10 31.05522789138745
v 29.856554006658506 10 31.05522789138745
v 88.68008341842318 10 31.05522789138745
v 147.50361283018788 10 31.05522789138745
v 206.32714224195257 10 31.05522789138745
v 265.15067165371727 10 31.05522789138745
v 323.97420106548196 10 31.05522789138745
v 382.7977304772466 10 31.05522789138745
v 441.6212598890113 10 31.05522789138745
v 500.444789300776 10 31.05522789138745
v -440.73168128745925 10 -27.76830152037723
v -499.55521069922395 10 -27.76830152037723
v -381.90815187569456 10 -27.76830152037723
v -323.0846224639298 10 -27.76830152037723
v -264.2610930521651 10 -27.76830152037723
v -205.43756364040038 10 -27.76830152037723
v -146.61403422863566 10 -27.76830152037723
v -87.79050481687092 10 -27.76830152037723
v -28.96697540510618 10 -27.76830152037723
v 29.856554006658506 10 -27.76830152037723
v 88.68008341842318 10 -27.76830152037723
v 147.50361283018788 10 -27.76830152037723
v 206.32714224195257 10 -27.76830152037723
v 265.15067165371727 10 -27.76830152037723
v 323.97420106548196 10 -27.76830152037723
v 382.7977304772466 10 -27.76830152037723
v 441.6212598890113 10 -27.76830152037723
v 500.444789300776 10 -27.76830152037723
v -440.73168128745925 10 -86.59183093214196
v -499.55521069922395 10 -86.59183093214196
v -381.90815187569456 10 -86.59183093214196
v -323.0846224639298 10 -86.59183093214196
v -264.2610930521651 10 -86.59183093214196
v -205.43756364040038 10 -86.59183093214196
v -146.61403422863566 10 -86.59183093214196
v -87.79050481687092 10 -86.59183093214196
v -28.96697540510618 10 -86.59183093214196
v 29.856554006658506 10 -86.59183093214196
v 88.68008341842318 10 -86.59183093214196
v 147.50361283018788 10 -86.59183093214196
v 206.32714224195257 10 -86.59183093214196
v 265.15067165371727 10 -86.59183093214196
v 323.97420106548196 10 -86.59183093214196
v 382.7977304772466 10 -86.59183093214196
v 441.6212598890113 10 -86.59183093214196
v 500.444789300776 10 -86.59183093214196
v -440.73168128745925 10 -145.41536034390668
v -499.55521069922395 10 -145.41536034390668
v -381.90815187569456 10 -145.41536034390668
v -323.0846224639298 10 -145.41536034390668
v -264.2610930521651 10 -145.41536034390668
v -205.43756364040038 10 -145.41536034390668
v -146.61403422863566 10 -145.41536034390668
v -87.79050481687092 10 -145.41536034390668
v -28.96697540510618 10 -145.41536034390668
v 29.856554006658506 10 -145.41536034390668
v 88.68008341842318 10 -145.41536034390668
v 147.50361283018788 10 -145.41536034390668
v 206.32714224195257 10 -145.41536034390668
v 265.15067165371727 10 -145.41536034390668
v 323.97420106548196 10 -145.41536034390668
v 382.7977304772466 10 -145.41536034390668
v 441.6212598890113 10 -145.41536034390668
v 500.444789300776 10 -145.41536034390668
v -440.73168128745925 10 -204.2388897556714
v -499.55521069922395 10 -204.2388897556714
v -381.90815187569456 10 -204.2388897556714
v -323.0846224639298 10 -204.2388897556714
v -264.2610930521651 10 -204.2388897556714
v -205.43756364040038 10 -204.2388897556714
v -146.61403422863566 10 -204.2388897556714
v -87.79050481687092 10 -204.2388897556714
v -28.96697540510618 10 -204.2388897556714
v 29.856554006658506 10 -204.2388897556714
v 88.68008341842318 10 -204.2388897556714
v 147.50361283018788 10 -204.2388897556714
v 206.32714224195257 10 -204.2388897556714
v 265.15067165371727 10 -204.2388897556714
v 323.97420106548196 10 -204.2388897556714
v 382.7977304772466 10 -204.2388897556714
v 441.6212598890113 10 -204.2388897556714
v 500.444789300776 10 -204.2388897556714
v -440.73168128745925 10 -263.06241916743613
v -499.55521069922395 10 -263.06241916743613
v -381.90815187569456 10 -263.06241916743613
v -323.0846224639298 10 -263.06241916743613
v -264.2610930521651 10 -263.06241916743613
v -205.43756364040038 10 -263.06241916743613
v -146.61403422863566 10 -263.06241916743613
v -87.79050481687092 10 -263.06241916743613
v -28.96697540510618 10 -263.06241916743613
v 29.856554006658506 10 -263.06241916743613
v 88.68008341842318 10 -263.06241916743613
v 147.50361283018788 10 -263.06241916743613
v 206.32714224195257 10 -263.06241916743613
v 265.15067165371727 10 -263.06241916743613
v 323.97420106548196 10 -263.06241916743613
v 382.7977304772466 10 -263.06241916743613
v 441.6212598890113 10 -263.06241916743613
v 500.444789300776 10 -263.06241916743613
v -440.73168128745925 10 -321.8859485792009
v -499.55521069922395 10 -321.8859485792009
v -381.90815187569456 10 -321.8859485792009
v -323.0846224639298 10 -321.8859485792009
v -264.2610930521651 10 -321.8859485792009
v -205.43756364040038 10 -321.8859485792009
v -146.61403422863566 10 -321.8859485792009
v -87.79050481687092 10 -321.8859485792009
v -28.96697540510618 10 -321.8859485792009
v 29.856554006658506 10 -321.8859485792009
v 88.68008341842318 10 -321.8859485792009
v 147.50361283018788 10 -321.8859485792009
v 206.32714224195257 10 -321.8859485792009
v 265.15067165371727 10 -321.8859485792009
v 323.97420106548196 10 -321.8859485792009
v 382.7977304772466 10 -321.8859485792009
v 441.6212598890113 10 -321.8859485792009
v 500.444789300776 10 -321.8859485792009
v -440.73168128745925 10 -380.70947799096564
v -499.55521069922395 10 -380.70947799096564
v -381.90815187569456 10 -380.70947799096564
v -323.0846224639298 10 -380.70947799096564
v -264.2610930521651 10 -380.70947799096564
v -205.43756364040038 10 -380.70947799096564
v -146.61403422863566 10 -380.70947799096564
v -87.79050481687092 10 -380.70947799096564
v -28.96697540510618 10 -380.70947799096564
v 29.856554006658506 10 -380.70947799096564
v 88.68008341842318 10 -380.70947799096564
v 147.50361283018788 10 -380.70947799096564
v 206.32714224195257 10 -380.70947799096564
v 265.15067165371727 10 -380.70947799096564
v 323.97420106548196 10 -380.70947799096564
v 382.7977304772466 10 -380.70947799096564
v 441.6212598890113 10 -380.70947799096564
v 500.444789300776 10 -380.70947799096564
v -440.73168128745925 10 -439.53300740273033
v -499.55521069922395 10 -439.53300740273033
v -381.90815187569456 10 -439.53300740273033
v -323.0846224639298 10 -439.53300740273033
v -264.2610930521651 10 -439.53300740273033
v -205.43756364040038 10 -439.53300740273033
v -146.61403422863566 10 -439.53300740273033
v -87.79050481687092 10 -439.53300740273033
v -28.96697540510618 10 -439.53300740273033
v 29.856554006658506 10 -439.53300740273033
v 88.68008341842318 10 -439.53300740273033
v 147.50361283018788 10 -439.53300740273033
v 206.32714224195257 10 -439.53300740273033
v 265.15067165371727 10 -439.53300740273033
v 323.97420106548196 10 -439.53300740273033
v 382.7977304772466 10 -439.53300740273033
v 441.6212598890113 10 -439.53300740273033
v 500.444789300776 10 -439.53300740273033
v -440.73168128745925 10 -498.3565368144951
v -499.55521069922395 10 -498.3565368144951
v -381.90815187569456 10 -498.3565368144951
v -323.0846224639298 10 -498.3565368144951
v -264.2610930521651 10 -498.3565368144951
v -205.43756364040038 10 -498.3565368144951
v -146.61403422863566 10 -498.3565368144951
v -87.79050481687092 10 -498.3565368144951
v -28.96697540510618 10 -498.3565368144951
v 29.856554006658506 10 -498.3565368144951
v 88.68008341842318 10 -498.3565368144951
v 147.50361283018788 10 -498.3565368144951
v 206.32714224195257 10 -498.3565368144951
v 265.15067165371727 10 -498.3565368144951
v 323.97420106548196 10 -498.3565368144951
v 382.7977304772466 10 -498.3565368144951
v 441.6212598890113 10 -498.3565368144951
v 500.444789300776 10 -498.3565368144951
# 324 vertices
vt -1.9513875417938435 -0.729765366303673
vt -1.7216081300291377 -0.729765366303673
vt -1.7216081300291377 -0.9595447780683786
vt -1.9513875417938435 -0.9595447780683786
vt -1.7216081300291377 -0.729765366303673
vt -1.4918287182644319 -0.729765366303673
vt -1.4918287182644319 -0.9595447780683786
vt -1.7216081300291377 -0.9595447780683786
vt -1.4918287182644319 -0.729765366303673
vt -1.2620493064997258 -0.729765366303673
vt -1.2620493064997258 -0.9595447780683786
vt -1.4918287182644319 -0.9595447780683786
vt -1.2620493064997258 -0.729765366303673
vt -1.03226989473502 -0.729765366303673
vt -1.03226989473502 -0.9595447780683786
vt -1.2620493064997258 -0.9595447780683786
vt -1.03226989473502 -0.729765366303673
vt -0.802490482970314 -0.729765366303673
vt -0.802490482970314 -0.9595447780683786
vt -1.03226989473502 -0.9595447780683786
vt -0.802490482970314 -0.729765366303673
vt -0.572711071205608 -0.729765366303673
vt -0.572711071205608 -0.9595447780683786
vt -0.802490482970314 -0.9595447780683786
vt -0.572711071205608 -0.729765366303673
vt -0.34293165944090204 -0.729765366303673
vt -0.34293165944090204 -0.9595447780683786
vt -0.572711071205608 -0.9595447780683786
vt -0.34293165944090204 -0.729765366303673
vt -0.11315224767619601 -0.729765366303673
vt -0.11315224767619601 -0.9595447780683786
vt -0.34293165944090204 -0.9595447780683786
vt -0.11315224767619601 -0.729765366303673
vt 0.11662716408850979 -0.729765366303673
vt 0.11662716408850979 -0.9595447780683786
vt -0.11315224767619601 -0.9595447780683786
vt 0.11662716408850979 -0.729765366303673
vt 0.34640657585321555 -0.729765366303673
vt 0.34640657585321555 -0.9595447780683786
vt 0.11662716408850979 -0.9595447780683786
vt 0.34640657585321555 -0.729765366303673
vt 0.5761859876179214 -0.729765366303673
vt 0.5761859876179214 -0.9595447780683786
vt 0.34640657585321555 -0.9595447780683786
vt 0.5761859876179214 -0.729765366303673
vt 0.8059653993826272 -0.729765366303673
vt 0.8059653993826272 -0.9595447780683786
vt 0.5761859876179214 -0.9595447780683786
vt 0.8059653993826272 -0.729765366303673
vt 1.035744811147333 -0.729765366303673
vt 1.035744811147333 -0.9595447780683786
vt 0.8059653993826272 -0.9595447780683786
vt 1.035744811147333 -0.729765366303673
vt 1.265524222912039 -0.729765366303673
vt 1.265524222912039 -0.9595447780683786
vt 1.035744811147333 -0.9595447780683786
vt 1.265524222912039 -0.729765366303673
vt 1.4953036346767445 -0.729765366303673
vt 1.4953036346767445 -0.9595447780683786
vt 1.265524222912039 -0.9595447780683786
vt 1.4953036346767445 -0.729765366303673
vt 1.7250830464414504 -0.729765366303673
vt 1.7250830464414504 -0.9595447780683786
vt 1.4953036346767445 -0.9595447780683786
vt 1.7250830464414504 -0.729765366303673
vt 1.9548624582061562 -0.729765366303673
vt 1.9548624582061562 -0.9595447780683786
vt 1.7250830464414504 -0.9595447780683786
vt -1.9513875417938435 -0.4999859545389669
vt -1.7216081300291377 -0.4999859545389669
vt -1.7216081300291377 -0.729765366303673
vt -1.9513875417938435 -0.729765366303673
vt -1.7216081300291377 -0.4999859545389669
vt -1.4918287182644319 -0.4999859545389669
vt -1.4918287182644319 -0.729765366303673
vt -1.7216081300291377 -0.729765366303673
vt -1.4918287182644319 -0.4999859545389669
vt -1.2620493064997258 -0.4999859545389669
vt -1.2620493064997258 -0.729765366303673
vt -1.4918287182644319 -0.729765366303673
vt -1.2620493064997258 -0.4999859545389669
vt -1.03226989473502 -0.4999859545389669
vt -1.03226989473502 -0.729765366303673
vt -1.2620493064997258 -0.729765366303673
vt -1.03226989473502 -0.4999859545389669
vt -0.802490482970314 -0.4999859545389669
vt -0.802490482970314 -0.729765366303673
vt -1.03226989473502 -0.729765366303673
vt -0.802490482970314 -0.4999859545389669
vt -0.572711071205608 -0.4999859545389669
vt -0.572711071205608 -0.729765366303673
vt -0.802490482970314 -0.729765366303673
vt -0.572711071205608 -0.4999859545389669
vt -0.34293165944090204 -0.4999859545389669
vt -0.34293165944090204 -0.729765366303673
vt -0.572711071205608 -0.729765366303673
vt -0.34293165944090204 -0.4999859545389669
vt -0.11315224767619601 -0.4999859545389669
vt -0.11315224767619601 -0.729765366303673
vt -0.34293165944090204 -0.729765366303673
vt -0.11315224767619601 -0.4999859545389669
vt 0.11662716408850979 -0.4999859545389669
vt 0.11662716408850979 -0.729765366303673
vt -0.11315224767619601 -0.729765366303673
vt 0.11662716408850979 -0.4999859545389669
vt 0.34640657585321555 -0.4999859545389669
vt 0.34640657585321555 -0.729765366303673
vt 0.11662716408850979 -0.729765366303673
vt 0.34640657585321555 -0.4999859545389669
vt 0.5761859876179214 -0.4999859545389669
vt 0.5761859876179214 -0.729765366303673
vt 0.34640657585321555 -0.729765366303673
vt 0.5761859876179214 -0.4999859545389669
vt 0.8059653993826272 -0.4999859545389669
vt 0.8059653993826272 -0.729765366303673
vt 0.5761859876179214 -0.729765366303673
vt 0.8059653993826272 -0.4999859545389669
vt 1.035744811147333 -0.4999859545389669
vt 1.035744811147333 -0.729765366303673
vt 0.8059653993826272 -0.729765366303673
vt 1.035744811147333 -0.4999859545389669
vt 1.265524222912039 -0.4999859545389669
vt 1.265524222912039 -0.729765366303673
vt 1.035744811147333 -0.729765366303673
vt 1.265524222912039 -0.4999859545389669
vt 1.4953036346767445 -0.4999859545389669
vt 1.4953036346767445 -0.729765366303673
vt 1.265524222912039 -0.729765366303673
vt 1.4953036346767445 -0.4999859545389669
vt 1.7250830464414504 -0.4999859545389669
vt 1.7250830464414504 -0.729765366303673
vt 1.4953036346767445 -0.729765366303673
vt 1.7250830464414504 -0.4999859545389669
vt 1.9548624582061562 -0.4999859545389669
vt 1.9548624582061562 -0.729765366303673
vt 1.7250830464414504 -0.729765366303673
vt -1.9513875417938435 -0.27020654277426104
vt -1.7216081300291377 -0.27020654277426104
vt -1.7216081300291377 -0.4999859545389669
vt -1.9513875417938435 -0.4999859545389669
vt -1.7216081300291377 -0.27020654277426104
vt -1.4918287182644319 -0.27020654277426104
vt -1.4918287182644319 -0.4999859545389669
vt -1.7216081300291377 -0.4999859545389669
vt -1.4918287182644319 -0.27020654277426104
vt -1.2620493064997258 -0.27020654277426104
vt -1.2620493064997258 -0.4999859545389669
vt -1.4918287182644319 -0.4999859545389669
vt -1.2620493064997258 -0.27020654277426104
vt -1.03226989473502 -0.27020654277426104
vt -1.03226989473502 -0.4999859545389669
vt -1.2620493064997258 -0.4999859545389669
vt -1.03226989473502 -0.27020654277426104
vt -0.802490482970314 -0.27020654277426104
vt -0.802490482970314 -0.4999859545389669
vt -1.03226989473502 -0.4999859545389669
vt -0.802490482970314 -0.27020654277426104
vt -0.572711071205608 -0.27020654277426104
vt -0.572711071205608 -0.4999859545389669
vt -0.802490482970314 -0.4999859545389669
vt -0.572711071205608 -0.27020654277426104
vt -0.34293165944090204 -0.27020654277426104
vt -0.34293165944090204 -0.4999859545389669
vt -0.572711071205608 -0.4999859545389669
vt -0.34293165944090204 -0.27020654277426104
vt -0.11315224767619601 -0.27020654277426104
vt -0.11315224767619601 -0.4999859545389669
vt -0.34293165944090204 -0.4999859545389669
vt -0.11315224767619601 -0.27020654277426104
vt 0.11662716408850979 -0.27020654277426104
vt 0.11662716408850979 -0.4999859545389669
vt -0.11315224767619601 -0.4999859545389669
vt 0.11662716408850979 -0.27020654277426104
vt 0.34640657585321555 -0.27020654277426104
vt 0.34640657585321555 -0.4999859545389669
vt 0.11662716408850979 -0.4999859545389669
vt 0.34640657585321555 -0.27020654277426104
vt 0.5761859876179214 -0.27020654277426104
vt 0.5761859876179214 -0.4999859545389669
vt 0.34640657585321555 -0.4999859545389669
vt 0.5761859876179214 -0.27020654277426104
vt 0.8059653993826272 -0.27020654277426104
vt 0.8059653993826272 -0.4999859545389669
vt 0.5761859876179214 -0.4999859545389669
vt 0.8059653993826272 -0.27020654277426104
vt 1.035744811147333 -0.27020654277426104
vt 1.035744811147333 -0.4999859545389669
vt 0.8059653993826272 -0.4999859545389669
vt 1.035744811147333 -0.27020654277426104
vt 1.265524222912039 -0.27020654277426104
vt 1.265524222912039 -0.4999859545389669
vt 1.035744811147333 -0.4999859545389669
vt 1.265524222912039 -0.27020654277426104
vt 1.4953036346767445 -0.27020654277426104
vt 1.4953036346767445 -0.4999859545389669
vt 1.265524222912039 -0.4999859545389669
vt 1.4953036346767445 -0.27020654277426104
vt 1.7250830464414504 -0.27020654277426104
vt 1.7250830464414504 -0.4999859545389669
vt 1.4953036346767445 -0.4999859545389669
vt 1.7250830464414504 -0.27020654277426104
vt 1.9548624582061562 -0.27020654277426104
vt 1.9548624582061562 -0.4999859545389669
vt 1.7250830464414504 -0.4999859545389669
vt -1.9513875417938435 -0.04042713100955542
vt -1.7216081300291377 -0.04042713100955542
vt -1.7216081300291377 -0.27020654277426104
vt -1.9513875417938435 -0.27020654277426104
vt -1.7216081300291377 -0.04042713100955542
vt -1.4918287182644319 -0.04042713100955542
vt -1.4918287182644319 -0.27020654277426104
vt -1.7216081300291377 -0.27020654277426104
vt -1.4918287182644319 -0.04042713100955542
vt -1.2620493064997258 -0.04042713100955542
vt -1.2620493064997258 -0.27020654277426104
vt -1.4918287182644319 -0.27020654277426104
vt -1.2620493064997258 -0.04042713100955542
vt -1.03226989473502 -0.04042713100955542
vt -1.03226989473502 -0.27020654277426104
vt -1.2620493064997258 -0.27020654277426104
vt -1.03226989473502 -0.04042713100955542
vt -0.802490482970314 -0.04042713100955542
vt -0.802490482970314 -0.27020654277426104
vt -1.03226989473502 -0.27020654277426104
vt -0.802490482970314 -0.04042713100955542
vt -0.572711071205608 -0.04042713100955542
vt -0.572711071205608 -0.27020654277426104
vt -0.802490482970314 -0.27020654277426104
vt -0.572711071205608 -0.04042713100955542
vt -0.34293165944090204 -0.04042713100955542
vt -0.34293165944090204 -0.27020654277426104
vt -0.572711071205608 -0.27020654277426104
vt -0.34293165944090204 -0.04042713100955542
vt -0.11315224767619601 -0.04042713100955542
vt -0.11315224767619601 -0.27020654277426104
vt -0.34293165944090204 -0.27020654277426104
vt -0.11315224767619601 -0.04042713100955542
vt 0.11662716408850979 -0.04042713100955542
vt 0.11662716408850979 -0.27020654277426104
vt -0.11315224767619601 -0.27020654277426104
vt 0.11662716408850979 -0.04042713100955542
vt 0.34640657585321555 -0.04042713100955542
vt 0.34640657585321555 -0.27020654277426104
vt 0.11662716408850979 -0.27020654277426104
vt 0.34640657585321555 -0.04042713100955542
vt 0.5761859876179214 -0.04042713100955542
vt 0.5761859876179214 -0.27020654277426104
vt 0.34640657585321555 -0.27020654277426104
vt 0.5761859876179214 -0.04042713100955542
vt 0.8059653993826272 -0.04042713100955542
vt 0.8059653993826272 -0.27020654277426104
vt 0.5761859876179214 -0.27020654277426104
vt 0.8059653993826272 -0.04042713100955542
vt 1.035744811147333 -0.04042713100955542
vt 1.035744811147333 -0.27020654277426104
vt 0.8059653993826272 -0.27020654277426104
vt 1.035744811147333 -0.04042713100955542
vt 1.265524222912039 -0.04042713100955542
vt 1.265524222912039 -0.27020654277426104
vt 1.035744811147333 -0.27020654277426104
vt 1.265524222912039 -0.04042713100955542
vt 1.4953036346767445 -0.04042713100955542
vt 1.4953036346767445 -0.27020654277426104
vt 1.265524222912039 -0.27020654277426104
vt 1.4953036346767445 -0.04042713100955542
vt 1.7250830464414504 -0.04042713100955542
vt 1.7250830464414504 -0.27020654277426104
vt 1.4953036346767445 -0.27020654277426104
vt 1.7250830464414504 -0.04042713100955542
vt 1.9548624582061562 -0.04042713100955542
vt 1.9548624582061562 -0.27020654277426104
vt 1.7250830464414504 -0.27020654277426104
vt -1.9513875417938435 0.18935228075515043
vt -1.7216081300291377 0.18935228075515043
vt -1.7216081300291377 -0.04042713100955542
vt -1.9513875417938435 -0.04042713100955542
vt -1.7216081300291377 0.18935228075515043
vt -1.4918287182644319 0.18935228075515043
vt -1.4918287182644319 -0.04042713100955542
vt -1.7216081300291377 -0.04042713100955542
vt -1.4918287182644319 0.18935228075515043
vt -1.2620493064997258 0.18935228075515043
vt -1.2620493064997258 -0.04042713100955542
vt -1.4918287182644319 -0.04042713100955542
vt -1.2620493064997258 0.18935228075515043
vt -1.03226989473502 0.18935228075515043
vt -1.03226989473502 -0.04042713100955542
vt -1.2620493064997258 -0.04042713100955542
vt -1.03226989473502 0.18935228075515043
vt -0.802490482970314 0.18935228075515043
vt -0.802490482970314 -0.04042713100955542
vt -1.03226989473502 -0.04042713100955542
vt -0.802490482970314 0.18935228075515043
vt -0.572711071205608 0.18935228075515043
vt -0.572711071205608 -0.04042713100955542
vt -0.802490482970314 -0.04042713100955542
vt -0.572711071205608 0.18935228075515043
vt -0.34293165944090204 0.18935228075515043
vt -0.34293165944090204 -0.04042713100955542
vt -0.572711071205608 -0.04042713100955542
vt -0.34293165944090204 0.18935228075515043
vt -0.11315224767619601 0.18935228075515043
vt -0.11315224767619601 -0.04042713100955542
vt -0.34293165944090204 -0.04042713100955542
vt -0.11315224767619601 0.18935228075515043
vt 0.11662716408850979 0.18935228075515043
vt 0.11662716408850979 -0.04042713100955542
vt -0.11315224767619601 -0.04042713100955542
vt 0.11662716408850979 0.18935228075515043
vt 0.34640657585321555 0.18935228075515043
vt 0.34640657585321555 -0.04042713100955542
vt 0.11662716408850979 -0.04042713100955542
vt 0.34640657585321555 0.18935228075515043
vt 0.5761859876179214 0.18935228075515043
vt 0.5761859876179214 -0.04042713100955542
vt 0.34640657585321555 -0.04042713100955542
vt 0.5761859876179214 0.18935228075515043
vt 0.8059653993826272 0.18935228075515043
vt 0.8059653993826272 -0.04042713100955542
vt 0.5761859876179214 -0.04042713100955542
vt 0.8059653993826272 0.18935228075515043
vt 1.035744811147333 0.18935228075515043
vt 1.035744811147333 -0.04042713100955542
vt 0.8059653993826272 -0.04042713100955542
vt 1.035744811147333 0.18935228075515043
vt 1.265524222912039 0.18935228075515043
vt 1.265524222912039 -0.04042713100955542
vt 1.035744811147333 -0.04042713100955542
vt 1.265524222912039 0.18935228075515043
vt 1.4953036346767445 0.18935228075515043
vt 1.4953036346767445 -0.04042713100955542
vt 1.265524222912039 -0.04042713100955542
vt 1.4953036346767445 0.18935228075515043
vt 1.7250830464414504 0.18935228075515043
vt 1.7250830464414504 -0.04042713100955542
vt 1.4953036346767445 -0.04042713100955542
vt 1.7250830464414504 0.18935228075515043
vt 1.9548624582061562 0.18935228075515043
vt 1.9548624582061562 -0.04042713100955542
vt 1.7250830464414504 -0.04042713100955542
vt -1.9513875417938435 0.41913169251985616
vt -1.7216081300291377 0.41913169251985616
vt -1.7216081300291377 0.18935228075515043
vt -1.9513875417938435 0.18935228075515043
vt -1.7216081300291377 0.41913169251985616
vt -1.4918287182644319 0.41913169251985616
vt -1.4918287182644319 0.18935228075515043
vt -1.7216081300291377 0.18935228075515043
vt -1.4918287182644319 0.41913169251985616
vt -1.2620493064997258 0.41913169251985616
vt -1.2620493064997258 0.18935228075515043
vt -1.4918287182644319 0.18935228075515043
vt -1.2620493064997258 0.41913169251985616
vt -1.03226989473502 0.41913169251985616
vt -1.03226989473502 0.18935228075515043
vt -1.2620493064997258 0.18935228075515043
vt -1.03226989473502 0.41913169251985616
vt -0.802490482970314 0.41913169251985616
vt -0.802490482970314 0.18935228075515043
vt -1.03226989473502 0.18935228075515043
vt -0.802490482970314 0.41913169251985616
vt -0.572711071205608 0.41913169251985616
vt -0.572711071205608 0.18935228075515043
vt -0.802490482970314 0.18935228075515043
vt -0.572711071205608 0.41913169251985616
vt -0.34293165944090204 0.41913169251985616
vt -0.34293165944090204 0.18935228075515043
vt -0.572711071205608 0.18935228075515043
vt -0.34293165944090204 0.41913169251985616
vt -0.11315224767619601 0.41913169251985616
vt -0.11315224767619601 0.18935228075515043
vt -0.34293165944090204 0.18935228075515043
vt -0.11315224767619601 0.41913169251985616
vt 0.11662716408850979 0.41913169251985616
vt 0.11662716408850979 0.18935228075515043
vt -0.11315224767619601 0.18935228075515043
vt 0.11662716408850979 0.41913169251985616
vt 0.34640657585321555 0.41913169251985616
vt 0.34640657585321555 0.18935228075515043
vt 0.11662716408850979 0.18935228075515043
vt 0.34640657585321555 0.41913169251985616
vt 0.5761859876179214 0.41913169251985616
vt 0.5761859876179214 0.18935228075515043
vt 0.34640657585321555 0.18935228075515043
vt 0.5761859876179214 0.41913169251985616
vt 0.8059653993826272 0.41913169251985616
vt 0.8059653993826272 0.18935228075515043
vt 0.5761859876179214 0.18935228075515043
vt 0.8059653993826272 0.41913169251985616
vt 1.035744811147333 0.41913169251985616
vt 1.035744811147333 0.18935228075515043
vt 0.8059653993826272 0.18935228075515043
vt 1.035744811147333 0.41913169251985616
vt 1.265524222912039 0.41913169251985616
vt 1.265524222912039 0.18935228075515043
vt 1.035744811147333 0.18935228075515043
vt 1.265524222912039 0.41913169251985616
vt 1.4953036346767445 0.41913169251985616
vt 1.4953036346767445 0.18935228075515043
vt 1.265524222912039 0.18935228075515043
vt 1.4953036346767445 0.41913169251985616
vt 1.7250830464414504 0.41913169251985616
vt 1.7250830464414504 0.18935228075515043
vt 1.4953036346767445 0.18935228075515043
vt 1.7250830464414504 0.41913169251985616
vt 1.9548624582061562 0.41913169251985616
vt 1.9548624582061562 0.18935228075515043
vt 1.7250830464414504 0.18935228075515043
vt -1.9513875417938435 0.648911104284562
vt -1.7216081300291377 0.648911104284562
vt -1.7216081300291377 0.41913169251985616
vt -1.9513875417938435 0.41913169251985616
vt -1.7216081300291377 0.648911104284562
vt -1.4918287182644319 0.648911104284562
vt -1.4918287182644319 0.41913169251985616
vt -1.7216081300291377 0.41913169251985616
vt -1.4918287182644319 0.648911104284562
vt -1.2620493064997258 0.648911104284562
vt -1.2620493064997258 0.41913169251985616
vt -1.4918287182644319 0.41913169251985616
vt -1.2620493064997258 0.648911104284562
vt -1.03226989473502 0.648911104284562
vt -1.03226989473502 0.41913169251985616
vt -1.2620493064997258 0.41913169251985616
vt -1.03226989473502 0.648911104284562
vt -0.802490482970314 0.648911104284562
vt -0.802490482970314 0.41913169251985616
vt -1.03226989473502 0.41913169251985616
vt -0.802490482970314 0.648911104284562
vt -0.572711071205608 0.648911104284562
vt -0.572711071205608 0.41913169251985616
vt -0.802490482970314 0.41913169251985616
vt -0.572711071205608 0.648911104284562
vt -0.34293165944090204 0.648911104284562
vt -0.34293165944090204 0.41913169251985616
vt -0.572711071205608 0.41913169251985616
vt -0.34293165944090204 0.648911104284562
vt -0.11315224767619601 0.648911104284562
vt -0.11315224767619601 0.41913169251985616
vt -0.34293165944090204 0.41913169251985616
vt -0.11315224767619601 0.648911104284562
vt 0.11662716408850979 0.648911104284562
vt 0.11662716408850979 0.41913169251985616
vt -0.11315224767619601 0.41913169251985616
vt 0.11662716408850979 0.648911104284562
vt 0.34640657585321555 0.648911104284562
vt 0.34640657585321555 0.41913169251985616
vt 0.11662716408850979 0.41913169251985616
vt 0.34640657585321555 0.648911104284562
vt 0.5761859876179214 0.648911104284562
vt 0.5761859876179214 0.41913169251985616
vt 0.34640657585321555 0.41913169251985616
vt 0.5761859876179214 0.648911104284562
vt 0.8059653993826272 0.648911104284562
vt 0.8059653993826272 0.41913169251985616
vt 0.5761859876179214 0.41913169251985616
vt 0.8059653993826272 0.648911104284562
vt 1.035744811147333 0.648911104284562
vt 1.035744811147333 0.41913169251985616
vt 0.8059653993826272 0.41913169251985616
vt 1.035744811147333 0.648911104284562
vt 1.265524222912039 0.648911104284562
vt 1.265524222912039 0.41913169251985616
vt 1.035744811147333 0.41913169251985616
vt 1.265524222912039 0.648911104284562
vt 1.4953036346767445 0.648911104284562
vt 1.4953036346767445 0.41913169251985616
vt 1.265524222912039 0.41913169251985616
vt 1.4953036346767445 0.648911104284562
vt 1.7250830464414504 0.648911104284562
vt 1.7250830464414504 0.41913169251985616
vt 1.4953036346767445 0.41913169251985616
vt 1.7250830464414504 0.648911104284562
vt 1.9548624582061562 0.648911104284562
vt 1.9548624582061562 0.41913169251985616
vt 1.7250830464414504 0.41913169251985616
vt -1.9513875417938435 0.8786905160492677
vt -1.7216081300291377 0.8786905160492677
vt -1.7216081300291377 0.648911104284562
vt -1.9513875417938435 0.648911104284562
vt -1.7216081300291377 0.8786905160492677
vt -1.4918287182644319 0.8786905160492677
vt -1.4918287182644319 0.648911104284562
vt -1.7216081300291377 0.648911104284562
vt -1.4918287182644319 0.8786905160492677
vt -1.2620493064997258 0.8786905160492677
vt -1.2620493064997258 0.648911104284562
vt -1.4918287182644319 0.648911104284562
vt -1.2620493064997258 0.8786905160492677
vt -1.03226989473502 0.8786905160492677
vt -1.03226989473502 0.648911104284562
vt -1.2620493064997258 0.648911104284562
vt -1.03226989473502 0.8786905160492677
vt -0.802490482970314 0.8786905160492677
vt -0.802490482970314 0.648911104284562
vt -1.03226989473502 0.648911104284562
vt -0.802490482970314 0.8786905160492677
vt -0.572711071205608 0.8786905160492677
vt -0.572711071205608 0.648911104284562
vt -0.802490482970314 0.648911104284562
vt -0.572711071205608 0.8786905160492677
vt -0.34293165944090204 0.8786905160492677
vt -0.34293165944090204 0.648911104284562
vt -0.572711071205608 0.648911104284562
vt -0.34293165944090204 0.8786905160492677
vt -0.11315224767619601 0.8786905160492677
vt -0.11315224767619601 0.648911104284562
vt -0.34293165944090204 0.648911104284562
vt -0.11315224767619601 0.8786905160492677
vt 0.11662716408850979 0.8786905160492677
vt 0.11662716408850979 0.648911104284562
vt -0.11315224767619601 0.648911104284562
vt 0.11662716408850979 0.8786905160492677
vt 0.34640657585321555 0.8786905160492677
vt 0.34640657585321555 0.648911104284562
vt 0.11662716408850979 0.648911104284562
vt 0.34640657585321555 0.8786905160492677
vt 0.5761859876179214 0.8786905160492677
vt 0.5761859876179214 0.648911104284562
vt 0.34640657585321555 0.648911104284562
vt 0.5761859876179214 0.8786905160492677
vt 0.8059653993826272 0.8786905160492677
vt 0.8059653993826272 0.648911104284562
vt 0.5761859876179214 0.648911104284562
vt 0.8059653993826272 0.8786905160492677
vt 1.035744811147333 0.8786905160492677
vt 1.035744811147333 0.648911104284562
vt 0.8059653993826272 0.648911104284562
vt 1.035744811147333 0.8786905160492677
vt 1.265524222912039 0.8786905160492677
vt 1.265524222912039 0.648911104284562
vt 1.035744811147333 0.648911104284562
vt 1.265524222912039 0.8786905160492677
vt 1.4953036346767445 0.8786905160492677
vt 1.4953036346767445 0.648911104284562
vt 1.265524222912039 0.648911104284562
vt 1.4953036346767445 0.8786905160492677
vt 1.7250830464414504 0.8786905160492677
vt 1.7250830464414504 0.648911104284562
vt 1.4953036346767445 0.648911104284562
vt 1.7250830464414504 0.8786905160492677
vt 1.9548624582061562 0.8786905160492677
vt 1.9548624582061562 0.648911104284562
vt 1.7250830464414504 0.648911104284562
vt -1.9513875417938435 1.1084699278139736
vt -1.7216081300291377 1.1084699278139736
vt -1.7216081300291377 0.8786905160492677
vt -1.9513875417938435 0.8786905160492677
vt -1.7216081300291377 1.1084699278139736
vt -1.4918287182644319 1.1084699278139736
vt -1.4918287182644319 0.8786905160492677
vt -1.7216081300291377 0.8786905160492677
vt -1.4918287182644319 1.1084699278139736
vt -1.2620493064997258 1.1084699278139736
vt -1.2620493064997258 0.8786905160492677
vt -1.4918287182644319 0.8786905160492677
vt -1.2620493064997258 1.1084699278139736
vt -1.03226989473502 1.1084699278139736
vt -1.03226989473502 0.8786905160492677
vt -1.2620493064997258 0.8786905160492677
vt -1.03226989473502 1.1084699278139736
vt -0.802490482970314 1.1084699278139736
vt -0.802490482970314 0.8786905160492677
vt -1.03226989473502 0.8786905160492677
vt -0.802490482970314 1.1084699278139736
vt -0.572711071205608 1.1084699278139736
vt -0.572711071205608 0.8786905160492677
vt -0.802490482970314 0.8786905160492677
vt -0.572711071205608 1.1084699278139736
vt -0.34293165944090204 1.1084699278139736
vt -0.34293165944090204 0.8786905160492677
vt -0.572711071205608 0.8786905160492677
vt -0.34293165944090204 1.1084699278139736
vt -0.11315224767619601 1.1084699278139736
vt -0.11315224767619601 0.8786905160492677
vt -0.34293165944090204 0.8786905160492677
vt -0.11315224767619601 1.1084699278139736
vt 0.11662716408850979 1.1084699278139736
vt 0.11662716408850979 0.8786905160492677
vt -0.11315224767619601 0.8786905160492677
vt 0.11662716408850979 1.1084699278139736
vt 0.34640657585321555 1.1084699278139736
vt 0.34640657585321555 0.8786905160492677
vt 0.11662716408850979 0.8786905160492677
vt 0.34640657585321555 1.1084699278139736
vt 0.5761859876179214 1.1084699278139736
vt 0.5761859876179214 0.8786905160492677
vt 0.34640657585321555 0.8786905160492677
vt 0.5761859876179214 1.1084699278139736
vt 0.8059653993826272 1.1084699278139736
vt 0.8059653993826272 0.8786905160492677
vt 0.5761859876179214 0.8786905160492677
vt 0.8059653993826272 1.1084699278139736
vt 1.035744811147333 1.1084699278139736
vt 1.035744811147333 0.8786905160492677
vt 0.8059653993826272 0.8786905160492677
vt 1.035744811147333 1.1084699278139736
vt 1.265524222912039 1.1084699278139736
vt 1.265524222912039 0.8786905160492677
vt 1.035744811147333 0.8786905160492677
vt 1.265524222912039 1.1084699278139736
vt 1.4953036346767445 1.1084699278139736
vt 1.4953036346767445 0.8786905160492677
vt 1.265524222912039 0.8786905160492677
vt 1.4953036346767445 1.1084699278139736
vt 1.7250830464414504 1.1084699278139736
vt 1.7250830464414504 0.8786905160492677
vt 1.4953036346767445 0.8786905160492677
vt 1.7250830464414504 1.1084699278139736
vt 1.9548624582061562 1.1084699278139736
vt 1.9548624582061562 0.8786905160492677
vt 1.7250830464414504 0.8786905160492677
vt -1.9513875417938435 1.3382493395786796
vt -1.7216081300291377 1.3382493395786796
vt -1.7216081300291377 1.1084699278139736
vt -1.9513875417938435 1.1084699278139736
vt -1.7216081300291377 1.3382493395786796
vt -1.4918287182644319 1.3382493395786796
vt -1.4918287182644319 1.1084699278139736
vt -1.7216081300291377 1.1084699278139736
vt -1.4918287182644319 1.3382493395786796
vt -1.2620493064997258 1.3382493395786796
vt -1.2620493064997258 1.1084699278139736
vt -1.4918287182644319 1.1084699278139736
vt -1.2620493064997258 1.3382493395786796
vt -1.03226989473502 1.3382493395786796
vt -1.03226989473502 1.1084699278139736
vt -1.2620493064997258 1.1084699278139736
vt -1.03226989473502 1.3382493395786796
vt -0.802490482970314 1.3382493395786796
vt -0.802490482970314 1.1084699278139736
vt -1.03226989473502 1.1084699278139736
vt -0.802490482970314 1.3382493395786796
vt -0.572711071205608 1.3382493395786796
vt -0.572711071205608 1.1084699278139736
vt -0.802490482970314 1.1084699278139736
vt -0.572711071205608 1.3382493395786796
vt -0.34293165944090204 1.3382493395786796
vt -0.34293165944090204 1.1084699278139736
vt -0.572711071205608 1.1084699278139736
vt -0.34293165944090204 1.3382493395786796
vt -0.11315224767619601 1.3382493395786796
vt -0.11315224767619601 1.1084699278139736
vt -0.34293165944090204 1.1084699278139736
vt -0.11315224767619601 1.3382493395786796
vt 0.11662716408850979 1.3382493395786796
vt 0.11662716408850979 1.1084699278139736
vt -0.11315224767619601 1.1084699278139736
vt 0.11662716408850979 1.3382493395786796
vt 0.34640657585321555 1.3382493395786796
vt 0.34640657585321555 1.1084699278139736
vt 0.11662716408850979 1.1084699278139736
vt 0.34640657585321555 1.3382493395786796
vt 0.5761859876179214 1.3382493395786796
vt 0.5761859876179214 1.1084699278139736
vt 0.34640657585321555 1.1084699278139736
vt 0.5761859876179214 1.3382493395786796
vt 0.8059653993826272 1.3382493395786796
vt 0.8059653993826272 1.1084699278139736
vt 0.5761859876179214 1.1084699278139736
vt 0.8059653993826272 1.3382493395786796
vt 1.035744811147333 1.3382493395786796
vt 1.035744811147333 1.1084699278139736
vt 0.8059653993826272 1.1084699278139736
vt 1.035744811147333 1.3382493395786796
vt 1.265524222912039 1.3382493395786796
vt 1.265524222912039 1.1084699278139736
vt 1.035744811147333 1.1084699278139736
vt 1.265524222912039 1.3382493395786796
vt 1.4953036346767445 1.3382493395786796
vt 1.4953036346767445 1.1084699278139736
vt 1.265524222912039 1.1084699278139736
vt 1.4953036346767445 1.3382493395786796
vt 1.7250830464414504 1.3382493395786796
vt 1.7250830464414504 1.1084699278139736
vt 1.4953036346767445 1.1084699278139736
vt 1.7250830464414504 1.3382493395786796
vt 1.9548624582061562 1.3382493395786796
vt 1.9548624582061562 1.1084699278139736
vt 1.7250830464414504 1.1084699278139736
vt -1.9513875417938435 1.5680287513433855
vt -1.7216081300291377 1.5680287513433855
vt -1.7216081300291377 1.3382493395786796
vt -1.9513875417938435 1.3382493395786796
vt -1.7216081300291377 1.5680287513433855
vt -1.4918287182644319 1.5680287513433855
vt -1.4918287182644319 1.3382493395786796
vt -1.7216081300291377 1.3382493395786796
vt -1.4918287182644319 1.5680287513433855
vt -1.2620493064997258 1.5680287513433855
vt -1.2620493064997258 1.3382493395786796
vt -1.4918287182644319 1.3382493395786796
vt -1.2620493064997258 1.5680287513433855
vt -1.03226989473502 1.5680287513433855
vt -1.03226989473502 1.3382493395786796
vt -1.2620493064997258 1.3382493395786796
vt -1.03226989473502 1.5680287513433855
vt -0.802490482970314 1.5680287513433855
vt -0.802490482970314 1.3382493395786796
vt -1.03226989473502 1.3382493395786796
vt -0.802490482970314 1.5680287513433855
vt -0.572711071205608 1.5680287513433855
vt -0.572711071205608 1.3382493395786796
vt -0.802490482970314 1.3382493395786796
vt -0.572711071205608 1.5680287513433855
vt -0.34293165944090204 1.5680287513433855
vt -0.34293165944090204 1.3382493395786796
vt -0.572711071205608 1.3382493395786796
vt -0.34293165944090204 1.5680287513433855
vt -0.11315224767619601 1.5680287513433855
vt -0.11315224767619601 1.3382493395786796
vt -0.34293165944090204 1.3382493395786796
vt -0.11315224767619601 1.5680287513433855
vt 0.11662716408850979 1.5680287513433855
vt 0.11662716408850979 1.3382493395786796
vt -0.11315224767619601 1.3382493395786796
vt 0.11662716408850979 1.5680287513433855
vt 0.34640657585321555 1.5680287513433855
vt 0.34640657585321555 1.3382493395786796
vt 0.11662716408850979 1.3382493395786796
vt 0.34640657585321555 1.5680287513433855
vt 0.5761859876179214 1.5680287513433855
vt 0.5761859876179214 1.3382493395786796
vt 0.34640657585321555 1.3382493395786796
vt 0.5761859876179214 1.5680287513433855
vt 0.8059653993826272 1.5680287513433855
vt 0.8059653993826272 1.3382493395786796
vt 0.5761859876179214 1.3382493395786796
vt 0.8059653993826272 1.5680287513433855
vt 1.035744811147333 1.5680287513433855
vt 1.035744811147333 1.3382493395786796
vt 0.8059653993826272 1.3382493395786796
vt 1.035744811147333 1.5680287513433855
vt 1.265524222912039 1.5680287513433855
vt 1.265524222912039 1.3382493395786796
vt 1.035744811147333 1.3382493395786796
vt 1.265524222912039 1.5680287513433855
vt 1.4953036346767445 1.5680287513433855
vt 1.4953036346767445 1.3382493395786796
vt 1.265524222912039 1.3382493395786796
vt 1.4953036346767445 1.5680287513433855
vt 1.7250830464414504 1.5680287513433855
vt 1.7250830464414504 1.3382493395786796
vt 1.4953036346767445 1.3382493395786796
vt 1.7250830464414504 1.5680287513433855
vt 1.9548624582061562 1.5680287513433855
vt 1.9548624582061562 1.3382493395786796
vt 1.7250830464414504 1.3382493395786796
vt -1.9513875417938435 1.7978081631080913
vt -1.7216081300291377 1.7978081631080913
vt -1.7216081300291377 1.5680287513433855
vt -1.9513875417938435 1.5680287513433855
vt -1.7216081300291377 1.7978081631080913
vt -1.4918287182644319 1.7978081631080913
vt -1.4918287182644319 1.5680287513433855
vt -1.7216081300291377 1.5680287513433855
vt -1.4918287182644319 1.7978081631080913
vt -1.2620493064997258 1.7978081631080913
vt -1.2620493064997258 1.5680287513433855
vt -1.4918287182644319 1.5680287513433855
vt -1.2620493064997258 1.7978081631080913
vt -1.03226989473502 1.7978081631080913
vt -1.03226989473502 1.5680287513433855
vt -1.2620493064997258 1.5680287513433855
vt -1.03226989473502 1.7978081631080913
vt -0.802490482970314 1.7978081631080913
vt -0.802490482970314 1.5680287513433855
vt -1.03226989473502 1.5680287513433855
vt -0.802490482970314 1.7978081631080913
vt -0.572711071205608 1.7978081631080913
vt -0.572711071205608 1.5680287513433855
vt -0.802490482970314 1.5680287513433855
vt -0.572711071205608 1.7978081631080913
vt -0.34293165944090204 1.7978081631080913
vt -0.34293165944090204 1.5680287513433855
vt -0.572711071205608 1.5680287513433855
vt -0.34293165944090204 1.7978081631080913
vt -0.11315224767619601 1.7978081631080913
vt -0.11315224767619601 1.5680287513433855
vt -0.34293165944090204 1.5680287513433855
vt -0.11315224767619601 1.7978081631080913
vt 0.11662716408850979 1.7978081631080913
vt 0.11662716408850979 1.5680287513433855
vt -0.11315224767619601 1.5680287513433855
vt 0.11662716408850979 1.7978081631080913
vt 0.34640657585321555 1.7978081631080913
vt 0.34640657585321555 1.5680287513433855
vt 0.11662716408850979 1.5680287513433855
vt 0.34640657585321555 1.7978081631080913
vt 0.5761859876179214 1.7978081631080913
vt 0.5761859876179214 1.5680287513433855
vt 0.34640657585321555 1.5680287513433855
vt 0.5761859876179214 1.7978081631080913
vt 0.8059653993826272 1.7978081631080913
vt 0.8059653993826272 1.5680287513433855
vt 0.5761859876179214 1.5680287513433855
vt 0.8059653993826272 1.7978081631080913
vt 1.035744811147333 1.7978081631080913
vt 1.035744811147333 1.5680287513433855
vt 0.8059653993826272 1.5680287513433855
vt 1.035744811147333 1.7978081631080913
vt 1.265524222912039 1.7978081631080913
vt 1.265524222912039 1.5680287513433855
vt 1.035744811147333 1.5680287513433855
vt 1.265524222912039 1.7978081631080913
vt 1.4953036346767445 1.7978081631080913
vt 1.4953036346767445 1.5680287513433855
vt 1.265524222912039 1.5680287513433855
vt 1.4953036346767445 1.7978081631080913
vt 1.7250830464414504 1.7978081631080913
vt 1.7250830464414504 1.5680287513433855
vt 1.4953036346767445 1.5680287513433855
vt 1.7250830464414504 1.7978081631080913
vt 1.9548624582061562 1.7978081631080913
vt 1.9548624582061562 1.5680287513433855
vt 1.7250830464414504 1.5680287513433855
vt -1.9513875417938435 2.0275875748727974
vt -1.7216081300291377 2.0275875748727974
vt -1.7216081300291377 1.7978081631080913
vt -1.9513875417938435 1.7978081631080913
vt -1.7216081300291377 2.0275875748727974
vt -1.4918287182644319 2.0275875748727974
vt -1.4918287182644319 1.7978081631080913
vt -1.7216081300291377 1.7978081631080913
vt -1.4918287182644319 2.0275875748727974
vt -1.2620493064997258 2.0275875748727974
vt -1.2620493064997258 1.7978081631080913
vt -1.4918287182644319 1.7978081631080913
vt -1.2620493064997258 2.0275875748727974
vt -1.03226989473502 2.0275875748727974
vt -1.03226989473502 1.7978081631080913
vt -1.2620493064997258 1.7978081631080913
vt -1.03226989473502 2.0275875748727974
vt -0.802490482970314 2.0275875748727974
vt -0.802490482970314 1.7978081631080913
vt -1.03226989473502 1.7978081631080913
vt -0.802490482970314 2.0275875748727974
vt -0.572711071205608 2.0275875748727974
vt -0.572711071205608 1.7978081631080913
vt -0.802490482970314 1.7978081631080913
vt -0.572711071205608 2.0275875748727974
vt -0.34293165944090204 2.0275875748727974
vt -0.34293165944090204 1.7978081631080913
vt -0.572711071205608 1.7978081631080913
vt -0.34293165944090204 2.0275875748727974
vt -0.11315224767619601 2.0275875748727974
vt -0.11315224767619601 1.7978081631080913
vt -0.34293165944090204 1.7978081631080913
vt -0.11315224767619601 2.0275875748727974
vt 0.11662716408850979 2.0275875748727974
vt 0.11662716408850979 1.7978081631080913
vt -0.11315224767619601 1.7978081631080913
vt 0.11662716408850979 2.0275875748727974
vt 0.34640657585321555 2.0275875748727974
vt 0.34640657585321555 1.7978081631080913
vt 0.11662716408850979 1.7978081631080913
vt 0.34640657585321555 2.0275875748727974
vt 0.5761859876179214 2.0275875748727974
vt 0.5761859876179214 1.7978081631080913
vt 0.34640657585321555 1.7978081631080913
vt 0.5761859876179214 2.0275875748727974
vt 0.8059653993826272 2.0275875748727974
vt 0.8059653993826272 1.7978081631080913
vt 0.5761859876179214 1.7978081631080913
vt 0.8059653993826272 2.0275875748727974
vt 1.035744811147333 2.0275875748727974
vt 1.035744811147333 1.7978081631080913
vt 0.8059653993826272 1.7978081631080913
vt 1.035744811147333 2.0275875748727974
vt 1.265524222912039 2.0275875748727974
vt 1.265524222912039 1.7978081631080913
vt 1.035744811147333 1.7978081631080913
vt 1.265524222912039 2.0275875748727974
vt 1.4953036346767445 2.0275875748727974
vt 1.4953036346767445 1.7978081631080913
vt 1.265524222912039 1.7978081631080913
vt 1.4953036346767445 2.0275875748727974
vt 1.7250830464414504 2.0275875748727974
vt 1.7250830464414504 1.7978081631080913
vt 1.4953036346767445 1.7978081631080913
vt 1.7250830464414504 2.0275875748727974
vt 1.9548624582061562 2.0275875748727974
vt 1.9548624582061562 1.7978081631080913
vt 1.7250830464414504 1.7978081631080913
vt -1.9513875417938435 2.2573669866375035
vt -1.7216081300291377 2.2573669866375035
vt -1.7216081300291377 2.0275875748727974
vt -1.9513875417938435 2.0275875748727974
vt -1.7216081300291377 2.2573669866375035
vt -1.4918287182644319 2.2573669866375035
vt -1.4918287182644319 2.0275875748727974
vt -1.7216081300291377 2.0275875748727974
vt -1.4918287182644319 2.2573669866375035
vt -1.2620493064997258 2.2573669866375035
vt -1.2620493064997258 2.0275875748727974
vt -1.4918287182644319 2.0275875748727974
vt -1.2620493064997258 2.2573669866375035
vt -1.03226989473502 2.2573669866375035
vt -1.03226989473502 2.0275875748727974
vt -1.2620493064997258 2.0275875748727974
vt -1.03226989473502 2.2573669866375035
vt -0.802490482970314 2.2573669866375035
vt -0.802490482970314 2.0275875748727974
vt -1.03226989473502 2.0275875748727974
vt -0.802490482970314 2.2573669866375035
vt -0.572711071205608 2.2573669866375035
vt -0.572711071205608 2.0275875748727974
vt -0.802490482970314 2.0275875748727974
vt -0.572711071205608 2.2573669866375035
vt -0.34293165944090204 2.2573669866375035
vt -0.34293165944090204 2.0275875748727974
vt -0.572711071205608 2.0275875748727974
vt -0.34293165944090204 2.2573669866375035
vt -0.11315224767619601 2.2573669866375035
vt -0.11315224767619601 2.0275875748727974
vt -0.34293165944090204 2.0275875748727974
vt -0.11315224767619601 2.2573669866375035
vt 0.11662716408850979 2.2573669866375035
vt 0.11662716408850979 2.0275875748727974
vt -0.11315224767619601 2.0275875748727974
vt 0.11662716408850979 2.2573669866375035
vt 0.34640657585321555 2.2573669866375035
vt 0.34640657585321555 2.0275875748727974
vt 0.11662716408850979 2.0275875748727974
vt 0.34640657585321555 2.2573669866375035
vt 0.5761859876179214 2.2573669866375035
vt 0.5761859876179214 2.0275875748727974
vt 0.34640657585321555 2.0275875748727974
vt 0.5761859876179214 2.2573669866375035
vt 0.8059653993826272 2.2573669866375035
vt 0.8059653993826272 2.0275875748727974
vt 0.5761859876179214 2.0275875748727974
vt 0.8059653993826272 2.2573669866375035
vt 1.035744811147333 2.2573669866375035
vt 1.035744811147333 2.0275875748727974
vt 0.8059653993826272 2.0275875748727974
vt 1.035744811147333 2.2573669866375035
vt 1.265524222912039 2.2573669866375035
vt 1.265524222912039 2.0275875748727974
vt 1.035744811147333 2.0275875748727974
vt 1.265524222912039 2.2573669866375035
vt 1.4953036346767445 2.2573669866375035
vt 1.4953036346767445 2.0275875748727974
vt 1.265524222912039 2.0275875748727974
vt 1.4953036346767445 2.2573669866375035
vt 1.7250830464414504 2.2573669866375035
vt 1.7250830464414504 2.0275875748727974
vt 1.4953036346767445 2.0275875748727974
vt 1.7250830464414504 2.2573669866375035
vt 1.9548624582061562 2.2573669866375035
vt 1.9548624582061562 2.0275875748727974
vt 1.7250830464414504 2.0275875748727974
vt -1.9513875417938435 2.4871463984022095
vt -1.7216081300291377 2.4871463984022095
vt -1.7216081300291377 2.2573669866375035
vt -1.9513875417938435 2.2573669866375035
vt -1.7216081300291377 2.4871463984022095
vt -1.4918287182644319 2.4871463984022095
vt -1.4918287182644319 2.2573669866375035
vt -1.7216081300291377 2.2573669866375035
vt -1.4918287182644319 2.4871463984022095
vt -1.2620493064997258 2.4871463984022095
vt -1.2620493064997258 2.2573669866375035
vt -1.4918287182644319 2.2573669866375035
vt -1.2620493064997258 2.4871463984022095
vt -1.03226989473502 2.4871463984022095
vt -1.03226989473502 2.2573669866375035
vt -1.2620493064997258 2.2573669866375035
vt -1.03226989473502 2.4871463984022095
vt -0.802490482970314 2.4871463984022095
vt -0.802490482970314 2.2573669866375035
vt -1.03226989473502 2.2573669866375035
vt -0.802490482970314 2.4871463984022095
vt -0.572711071205608 2.4871463984022095
vt -0.572711071205608 2.2573669866375035
vt -0.802490482970314 2.2573669866375035
vt -0.572711071205608 2.4871463984022095
vt -0.34293165944090204 2.4871463984022095
vt -0.34293165944090204 2.2573669866375035
vt -0.572711071205608 2.2573669866375035
vt -0.34293165944090204 2.4871463984022095
vt -0.11315224767619601 2.4871463984022095
vt -0.11315224767619601 2.2573669866375035
vt -0.34293165944090204 2.2573669866375035
vt -0.11315224767619601 2.4871463984022095
vt 0.11662716408850979 2.4871463984022095
vt 0.11662716408850979 2.2573669866375035
vt -0.11315224767619601 2.2573669866375035
vt 0.11662716408850979 2.4871463984022095
vt 0.34640657585321555 2.4871463984022095
vt 0.34640657585321555 2.2573669866375035
vt 0.11662716408850979 2.2573669866375035
vt 0.34640657585321555 2.4871463984022095
vt 0.5761859876179214 2.4871463984022095
vt 0.5761859876179214 2.2573669866375035
vt 0.34640657585321555 2.2573669866375035
vt 0.5761859876179214 2.4871463984022095
vt 0.8059653993826272 2.4871463984022095
vt 0.8059653993826272 2.2573669866375035
vt 0.5761859876179214 2.2573669866375035
vt 0.8059653993826272 2.4871463984022095
vt 1.035744811147333 2.4871463984022095
vt 1.035744811147333 2.2573669866375035
vt 0.8059653993826272 2.2573669866375035
vt 1.035744811147333 2.4871463984022095
vt 1.265524222912039 2.4871463984022095
vt 1.265524222912039 2.2573669866375035
vt 1.035744811147333 2.2573669866375035
vt 1.265524222912039 2.4871463984022095
vt 1.4953036346767445 2.4871463984022095
vt 1.4953036346767445 2.2573669866375035
vt 1.265524222912039 2.2573669866375035
vt 1.4953036346767445 2.4871463984022095
vt 1.7250830464414504 2.4871463984022095
vt 1.7250830464414504 2.2573669866375035
vt 1.4953036346767445 2.2573669866375035
vt 1.7250830464414504 2.4871463984022095
vt 1.9548624582061562 2.4871463984022095
vt 1.9548624582061562 2.2573669866375035
vt 1.7250830464414504 2.2573669866375035
vt -1.9513875417938435 2.7169258101669156
vt -1.7216081300291377 2.7169258101669156
vt -1.7216081300291377 2.4871463984022095
vt -1.9513875417938435 2.4871463984022095
vt -1.7216081300291377 2.7169258101669156
vt -1.4918287182644319 2.7169258101669156
vt -1.4918287182644319 2.4871463984022095
vt -1.7216081300291377 2.4871463984022095
vt -1.4918287182644319 2.7169258101669156
vt -1.2620493064997258 2.7169258101669156
vt -1.2620493064997258 2.4871463984022095
vt -1.4918287182644319 2.4871463984022095
vt -1.2620493064997258 2.7169258101669156
vt -1.03226989473502 2.7169258101669156
vt -1.03226989473502 2.4871463984022095
vt -1.2620493064997258 2.4871463984022095
vt -1.03226989473502 2.7169258101669156
vt -0.802490482970314 2.7169258101669156
vt -0.802490482970314 2.4871463984022095
vt -1.03226989473502 2.4871463984022095
vt -0.802490482970314 2.7169258101669156
vt -0.572711071205608 2.7169258101669156
vt -0.572711071205608 2.4871463984022095
vt -0.802490482970314 2.4871463984022095
vt -0.572711071205608 2.7169258101669156
vt -0.34293165944090204 2.7169258101669156
vt -0.34293165944090204 2.4871463984022095
vt -0.572711071205608 2.4871463984022095
vt -0.34293165944090204 2.7169258101669156
vt -0.11315224767619601 2.7169258101669156
vt -0.11315224767619601 2.4871463984022095
vt -0.34293165944090204 2.4871463984022095
vt -0.11315224767619601 2.7169258101669156
vt 0.11662716408850979 2.7169258101669156
vt 0.11662716408850979 2.4871463984022095
vt -0.11315224767619601 2.4871463984022095
vt 0.11662716408850979 2.7169258101669156
vt 0.34640657585321555 2.7169258101669156
vt 0.34640657585321555 2.4871463984022095
vt 0.11662716408850979 2.4871463984022095
vt 0.34640657585321555 2.7169258101669156
vt 0.5761859876179214 2.7169258101669156
vt 0.5761859876179214 2.4871463984022095
vt 0.34640657585321555 2.4871463984022095
vt 0.5761859876179214 2.7169258101669156
vt 0.8059653993826272 2.7169258101669156
vt 0.8059653993826272 2.4871463984022095
vt 0.5761859876179214 2.4871463984022095
vt 0.8059653993826272 2.7169258101669156
vt 1.035744811147333 2.7169258101669156
vt 1.035744811147333 2.4871463984022095
vt 0.8059653993826272 2.4871463984022095
vt 1.035744811147333 2.7169258101669156
vt 1.265524222912039 2.7169258101669156
vt 1.265524222912039 2.4871463984022095
vt 1.035744811147333 2.4871463984022095
vt 1.265524222912039 2.7169258101669156
vt 1.4953036346767445 2.7169258101669156
vt 1.4953036346767445 2.4871463984022095
vt 1.265524222912039 2.4871463984022095
vt 1.4953036346767445 2.7169258101669156
vt 1.7250830464414504 2.7169258101669156
vt 1.7250830464414504 2.4871463984022095
vt 1.4953036346767445 2.4871463984022095
vt 1.7250830464414504 2.7169258101669156
vt 1.9548624582061562 2.7169258101669156
vt 1.9548624582061562 2.4871463984022095
vt 1.7250830464414504 2.4871463984022095
vt -1.9513875417938435 2.946705221931621
vt -1.7216081300291377 2.946705221931621
vt -1.7216081300291377 2.7169258101669156
vt -1.9513875417938435 2.7169258101669156
vt -1.7216081300291377 2.946705221931621
vt -1.4918287182644319 2.946705221931621
vt -1.4918287182644319 2.7169258101669156
vt -1.7216081300291377 2.7169258101669156
vt -1.4918287182644319 2.946705221931621
vt -1.2620493064997258 2.946705221931621
vt -1.2620493064997258 2.7169258101669156
vt -1.4918287182644319 2.7169258101669156
vt -1.2620493064997258 2.946705221931621
vt -1.03226989473502 2.946705221931621
vt -1.03226989473502 2.7169258101669156
vt -1.2620493064997258 2.7169258101669156
vt -1.03226989473502 2.946705221931621
vt -0.802490482970314 2.946705221931621
vt -0.802490482970314 2.7169258101669156
vt -1.03226989473502 2.7169258101669156
vt -0.802490482970314 2.946705221931621
vt -0.572711071205608 2.946705221931621
vt -0.572711071205608 2.7169258101669156
vt -0.802490482970314 2.7169258101669156
vt -0.572711071205608 2.946705221931621
vt -0.34293165944090204 2.946705221931621
vt -0.34293165944090204 2.7169258101669156
vt -0.572711071205608 2.7169258101669156
vt -0.34293165944090204 2.946705221931621
vt -0.11315224767619601 2.946705221931621
vt -0.11315224767619601 2.7169258101669156
vt -0.34293165944090204 2.7169258101669156
vt -0.11315224767619601 2.946705221931621
vt 0.11662716408850979 2.946705221931621
vt 0.11662716408850979 2.7169258101669156
vt -0.11315224767619601 2.7169258101669156
vt 0.11662716408850979 2.946705221931621
vt 0.34640657585321555 2.946705221931621
vt 0.34640657585321555 2.7169258101669156
vt 0.11662716408850979 2.7169258101669156
vt 0.34640657585321555 2.946705221931621
vt 0.5761859876179214 2.946705221931621
vt 0.5761859876179214 2.7169258101669156
vt 0.34640657585321555 2.7169258101669156
vt 0.5761859876179214 2.946705221931621
vt 0.8059653993826272 2.946705221931621
vt 0.8059653993826272 2.7169258101669156
vt 0.5761859876179214 2.7169258101669156
vt 0.8059653993826272 2.946705221931621
vt 1.035744811147333 2.946705221931621
vt 1.035744811147333 2.7169258101669156
vt 0.8059653993826272 2.7169258101669156
vt 1.035744811147333 2.946705221931621
vt 1.265524222912039 2.946705221931621
vt 1.265524222912039 2.7169258101669156
vt 1.035744811147333 2.7169258101669156
vt 1.265524222912039 2.946705221931621
vt 1.4953036346767445 2.946705221931621
vt 1.4953036346767445 2.7169258101669156
vt 1.265524222912039 2.7169258101669156
vt 1.4953036346767445 2.946705221931621
vt 1.7250830464414504 2.946705221931621
vt 1.7250830464414504 2.7169258101669156
vt 1.4953036346767445 2.7169258101669156
vt 1.7250830464414504 2.946705221931621
vt 1.9548624582061562 2.946705221931621
vt 1.9548624582061562 2.7169258101669156
vt 1.7250830464414504 2.7169258101669156
# 1156 uvs
vn 0 0.9999999999999999 0
vn 0 0.9999999999999999 0
vn 0 0.9999999999999999 0
vn 0 0.9999999999999999 0
vn 0 0.9999999999999999 0
vn 0 0.9999999999999999 0
vn 0 0.9999999999999999 0
vn 0 0.9999999999999999 0
vn 0 1 0
vn 0 1 0
vn 0 1 0
vn 0 1 0
vn 0 0.9999999999999999 0
vn 0 0.9999999999999999 0
vn 0 0.9999999999999999 0
vn 0 0.9999999999999999 0
vn 0 0.9999999999999999 0
vn 0 0.9999999999999999 0
vn 0 0.9999999999999999 0
vn 0 0.9999999999999999 0
vn 0 0.9999999999999999 0
vn 0 0.9999999999999999 0
vn 0 0.9999999999999999 0
vn 0 0.9999999999999999 0
vn 0 1 0
vn 0 1 0
vn 0 1 0
vn 0 1 0
vn 0 1 0
vn 0 1 0
vn 0 1 0
vn 0 1 0
vn 0 1 0
vn 0 1 0
vn 0 1 0
vn 0 1 0
vn 0 1 0
vn 0 1 0
vn 0 1 0
vn 0 1 0
vn 0 0.9999999999999999 0
vn 0 0.9999999999999999 0
vn 0 0.9999999999999999 0
vn 0 0.9999999999999999 0
vn 0 0.9999999999999999 0
vn 0 0.9999999999999999 0
vn 0 0.9999999999999999 0
vn 0 0.9999999999999999 0
vn 0 0.9999999999999999 0
vn 0 0.9999999999999999 0
vn 0 0.9999999999999999 0
vn 0 0.9999999999999999 0
vn 0 0.9999999999999999 0
vn 0 0.9999999999999999 0
vn 0 0.9999999999999999 0
vn 0 0.9999999999999999 0
vn 0 1 0
vn 0 1 0
vn 0 1 0
vn 0 1 0
vn 0 0.9999999999999999 0
vn 0 0.9999999999999999 0
vn 0 0.9999999999999999 0
vn 0 0.9999999999999999 0
vn 0 0.9999999999999999 0
vn 0 0.9999999999999999 0
vn 0 0.9999999999999999 0
vn 0 0.9999999999999999 0
vn 0 1 0
vn 0 1 0
vn 0 1 0
vn 0 1 0
vn 0 1 0
vn 0 1 0
vn 0 1 0
vn 0 1 0
vn 0 1 0
vn 0 1 0
vn 0 1 0
vn 0 1 0
vn 0 1 0
vn 0 1 0
vn 0 1 0
vn 0 1 0
vn 0 1 0
vn 0 1 0
vn 0 1 0
vn 0 1 0
vn 0 1 0
vn 0 1 0
vn 0 1 0
vn 0 1 0
vn 0 1 0
vn 0 1 0
vn 0 1 0
vn 0 1 0
vn 0 1 0
vn 0 1 0
vn 0 1 0
vn 0 1 0
vn 0 1 0
vn 0 1 0
vn 0 1 0
vn 0 1 0
vn 0 1 0
vn 0 1 0
vn 0 1 0
vn 0 1 0
vn 0 0.9999999999999999 0
vn 0 0.9999999999999999 0
vn 0 0.9999999999999999 0
vn 0 0.9999999999999999 0
vn 0 1 0
vn 0 1 0
vn 0 1 0
vn 0 1 0
vn 0 1 0
vn 0 1 0
vn 0 1 0
vn 0 1 0
vn 0 1 0
vn 0 1 0
vn 0 1 0
vn 0 1 0
vn 0 1 0
vn 0 1 0
vn 0 1 0
vn 0 1 0
vn 0 1 0
vn 0 1 0
vn 0 1 0
vn 0 1 0
vn 0 1 0
vn 0 1 0
vn 0 1 0
vn 0 1 0
vn 0 1 0
vn 0 1 0
vn 0 1 0
vn 0 1 0
vn 0 0.9999999999999999 0
vn 0 0.9999999999999999 0
vn 0 0.9999999999999999 0
vn 0 0.9999999999999999 0
vn 0 1 0
vn 0 1 0
vn 0 1 0
vn 0 1 0
vn 0 1 0
vn 0 1 0
vn 0 1 0
vn 0 1 0
vn 0 1 0
vn 0 1 0
vn 0 1 0
vn 0 1 0
vn 0 1 0
vn 0 1 0
vn 0 1 0
vn 0 1 0
vn 0 1 0
vn 0 1 0
vn 0 1 0
vn 0 1 0
vn 0 0.9999999999999999 0
vn 0 0.9999999999999999 0
vn 0 0.9999999999999999 0
vn 0 0.9999999999999999 0
vn 0 1 0
vn 0 1 0
vn 0 1 0
vn 0 1 0
vn 0 0.9999999999999999 0
vn 0 0.9999999999999999 0
vn 0 0.9999999999999999 0
vn 0 0.9999999999999999 0
vn 0 1 0
vn 0 1 0
vn 0 1 0
vn 0 1 0
vn 0 1 0
vn 0 1 0
vn 0 1 0
vn 0 1 0
vn 0 0.9999999999999999 0
vn 0 0.9999999999999999 0
vn 0 0.9999999999999999 0
vn 0 0.9999999999999999 0
vn 0 1 0
vn 0 1 0
vn 0 1 0
vn 0 1 0
vn 0 0.9999999999999999 0
vn 0 0.9999999999999999 0
vn 0 0.9999999999999999 0
vn 0 0.9999999999999999 0
vn 0 1 0
vn 0 1 0
vn 0 1 0
vn 0 1 0
vn 0 1 0
vn 0 1 0
vn 0 1 0
vn 0 1 0
vn 0 0.9999999999999999 0
vn 0 0.9999999999999999 0
vn 0 0.9999999999999999 0
vn 0 0.9999999999999999 0
vn 0 0.9999999999999999 0
vn 0 0.9999999999999999 0
vn 0 0.9999999999999999 0
vn 0 0.9999999999999999 0
vn 0 1 0
vn 0 1 0
vn 0 1 0
vn 0 1 0
vn 0 0.9999999999999999 0
vn 0 0.9999999999999999 0
vn 0 0.9999999999999999 0
vn 0 0.9999999999999999 0
vn 0 0.9999999999999999 0
vn 0 0.9999999999999999 0
vn 0 0.9999999999999999 0
vn 0 0.9999999999999999 0
vn 0 0.9999999999999999 0
vn 0 0.9999999999999999 0
vn 0 0.9999999999999999 0
vn 0 0.9999999999999999 0
vn 0 1 0
vn 0 1 0
vn 0 1 0
vn 0 1 0
vn 0 1 0
vn 0 1 0
vn 0 1 0
vn 0 1 0
vn 0 1 0
vn 0 1 0
vn 0 1 0
vn 0 1 0
vn 0 1 0
vn 0 1 0
vn 0 1 0
vn 0 1 0
vn 0 0.9999999999999999 0
vn 0 0.9999999999999999 0
vn 0 0.9999999999999999 0
vn 0 0.9999999999999999 0
vn 0 0.9999999999999999 0
vn 0 0.9999999999999999 0
vn 0 0.9999999999999999 0
vn 0 0.9999999999999999 0
vn 0 0.9999999999999999 0
vn 0 0.9999999999999999 0
vn 0 0.9999999999999999 0
vn 0 0.9999999999999999 0
vn 0 0.9999999999999999 0
vn 0 0.9999999999999999 0
vn 0 0.9999999999999999 0
vn 0 0.9999999999999999 0
vn 0 1 0
vn 0 1 0
vn 0 1 0
vn 0 1 0
vn 0 0.9999999999999999 0
vn 0 0.9999999999999999 0
vn 0 0.9999999999999999 0
vn 0 0.9999999999999999 0
vn 0 0.9999999999999999 0
vn 0 0.9999999999999999 0
vn 0 0.9999999999999999 0
vn 0 0.9999999999999999 0
vn 0 1 0
vn 0 1 0
vn 0 1 0
vn 0 1 0
vn 0 0.9999999999999999 0
vn 0 0.9999999999999999 0
vn 0 0.9999999999999999 0
vn 0 0.9999999999999999 0
vn 0 1 0
vn 0 1 0
vn 0 1 0
vn 0 1 0
vn 0 1 0
vn 0 1 0
vn 0 1 0
vn 0 1 0
vn 0 1 0
vn 0 1 0
vn 0 1 0
vn 0 1 0
vn 0 1 0
vn 0 1 0
vn 0 1 0
vn 0 1 0
vn 0 1 0
vn 0 1 0
vn 0 1 0
vn 0 1 0
vn 0 0.9999999999999999 0
vn 0 0.9999999999999999 0
vn 0 0.9999999999999999 0
vn 0 0.9999999999999999 0
vn 0 1 0
vn 0 1 0
vn 0 1 0
vn 0 1 0
vn 0 0.9999999999999999 0
vn 0 0.9999999999999999 0
vn 0 0.9999999999999999 0
vn 0 0.9999999999999999 0
vn 0 1 0
vn 0 1 0
vn 0 1 0
vn 0 1 0
vn 0 1 0
vn 0 1 0
vn 0 1 0
vn 0 1 0
vn 0 0.9999999999999999 0
vn 0 0.9999999999999999 0
vn 0 0.9999999999999999 0
vn 0 0.9999999999999999 0
vn 0 1 0
vn 0 1 0
vn 0 1 0
vn 0 1 0
vn 0 0.9999999999999999 0
vn 0 0.9999999999999999 0
vn 0 0.9999999999999999 0
vn 0 0.9999999999999999 0
vn 0 1 0
vn 0 1 0
vn 0 1 0
vn 0 1 0
vn 0 1 0
vn 0 1 0
vn 0 1 0
vn 0 1 0
vn 0 0.9999999999999999 0
vn 0 0.9999999999999999 0
vn 0 0.9999999999999999 0
vn 0 0.9999999999999999 0
vn 0 0.9999999999999999 0
vn 0 0.9999999999999999 0
vn 0 0.9999999999999999 0
vn 0 0.9999999999999999 0
vn 0 1 0
vn 0 1 0
vn 0 1 0
vn 0 1 0
vn 0 0.9999999999999999 0
vn 0 0.9999999999999999 0
vn 0 0.9999999999999999 0
vn 0 0.9999999999999999 0
vn 0 0.9999999999999999 0
vn 0 0.9999999999999999 0
vn 0 0.9999999999999999 0
vn 0 0.9999999999999999 0
vn 0 1 0
vn 0 1 0
vn 0 1 0
vn 0 1 0
vn 0 1 0
vn 0 1 0
vn 0 1 0
vn 0 1 0
vn 0 1 0
vn 0 1 0
vn 0 1 0
vn 0 1 0
vn 0 1 0
vn 0 1 0
vn 0 1 0
vn 0 1 0
vn 0 0.9999999999999999 0
vn 0 0.9999999999999999 0
vn 0 0.9999999999999999 0
vn 0 0.9999999999999999 0
vn 0 1 0
vn 0 1 0
vn 0 1 0
vn 0 1 0
vn 0 0.9999999999999999 0
vn 0 0.9999999999999999 0
vn 0 0.9999999999999999 0
vn 0 0.9999999999999999 0
vn 0 0.9999999999999999 0
vn 0 0.9999999999999999 0
vn 0 0.9999999999999999 0
vn 0 0.9999999999999999 0
vn 0 1 0
vn 0 1 0
vn 0 1 0
vn 0 1 0
vn 0 1 0
vn 0 1 0
vn 0 1 0
vn 0 1 0
vn 0 1 0
vn 0 1 0
vn 0 1 0
vn 0 1 0
vn 0 0.9999999999999999 0
vn 0 0.9999999999999999 0
vn 0 0.9999999999999999 0
vn 0 0.9999999999999999 0
vn 0 1 0
vn 0 1 0
vn 0 1 0
vn 0 1 0
vn 0 0.9999999999999999 0
vn 0 0.9999999999999999 0
vn 0 0.9999999999999999 0
vn 0 0.9999999999999999 0
vn 0 1 0
vn 0 1 0
vn 0 1 0
vn 0 1 0
vn 0 1 0
vn 0 1 0
vn 0 1 0
vn 0 1 0
vn 0 1 0
vn 0 1 0
vn 0 1 0
vn 0 1 0
vn 0 1 0
vn 0 1 0
vn 0 1 0
vn 0 1 0
vn 0 1 0
vn 0 1 0
vn 0 1 0
vn 0 1 0
vn 0 0.9999999999999999 0
vn 0 0.9999999999999999 0
vn 0 0.9999999999999999 0
vn 0 0.9999999999999999 0
vn 0 1 0
vn 0 1 0
vn 0 1 0
vn 0 1 0
vn 0 0.9999999999999999 0
vn 0 0.9999999999999999 0
vn 0 0.9999999999999999 0
vn 0 0.9999999999999999 0
vn 0 1 0
vn 0 1 0
vn 0 1 0
vn 0 1 0
vn 0 1 0
vn 0 1 0
vn 0 1 0
vn 0 1 0
vn 0 0.9999999999999999 0
vn 0 0.9999999999999999 0
vn 0 0.9999999999999999 0
vn 0 0.9999999999999999 0
vn 0 1 0
vn 0 1 0
vn 0 1 0
vn 0 1 0
vn 0 0.9999999999999999 0
vn 0 0.9999999999999999 0
vn 0 0.9999999999999999 0
vn 0 0.9999999999999999 0
vn 0 1 0
vn 0 1 0
vn 0 1 0
vn 0 1 0
vn 0 1 0
vn 0 1 0
vn 0 1 0
vn 0 1 0
vn 0 0.9999999999999999 0
vn 0 0.9999999999999999 0
vn 0 0.9999999999999999 0
vn 0 0.9999999999999999 0
vn 0 1 0
vn 0 1 0
vn 0 1 0
vn 0 1 0
vn 0 1 0
vn 0 1 0
vn 0 1 0
vn 0 1 0
vn 0 0.9999999999999999 0
vn 0 0.9999999999999999 0
vn 0 0.9999999999999999 0
vn 0 0.9999999999999999 0
vn 0 1 0
vn 0 1 0
vn 0 1 0
vn 0 1 0
vn 0 1 0
vn 0 1 0
vn 0 1 0
vn 0 1 0
vn 0 1 0
vn 0 1 0
vn 0 1 0
vn 0 1 0
vn 0 1 0
vn 0 1 0
vn 0 1 0
vn 0 1 0
vn 0 0.9999999999999999 0
vn 0 0.9999999999999999 0
vn 0 0.9999999999999999 0
vn 0 0.9999999999999999 0
vn 0 0.9999999999999999 0
vn 0 0.9999999999999999 0
vn 0 0.9999999999999999 0
vn 0 0.9999999999999999 0
vn 0 1 0
vn 0 1 0
vn 0 1 0
vn 0 1 0
vn 0 0.9999999999999999 0
vn 0 0.9999999999999999 0
vn 0 0.9999999999999999 0
vn 0 0.9999999999999999 0
vn 0 0.9999999999999999 0
vn 0 0.9999999999999999 0
vn 0 0.9999999999999999 0
vn 0 0.9999999999999999 0
vn 0 1 0
vn 0 1 0
vn 0 1 0
vn 0 1 0
vn 0 0.9999999999999999 0
vn 0 0.9999999999999999 0
vn 0 0.9999999999999999 0
vn 0 0.9999999999999999 0
vn 0 0.9999999999999999 0
vn 0 0.9999999999999999 0
vn 0 0.9999999999999999 0
vn 0 0.9999999999999999 0
vn 0 1 0
vn 0 1 0
vn 0 1 0
vn 0 1 0
vn 0 0.9999999999999999 0
vn 0 0.9999999999999999 0
vn 0 0.9999999999999999 0
vn 0 0.9999999999999999 0
vn 0 1 0
vn 0 1 0
vn 0 1 0
vn 0 1 0
vn 0 1 0
vn 0 1 0
vn 0 1 0
vn 0 1 0
vn 0 0.9999999999999999 0
vn 0 0.9999999999999999 0
vn 0 0.9999999999999999 0
vn 0 0.9999999999999999 0
vn 0 1 0
vn 0 1 0
vn 0 1 0
vn 0 1 0
vn 0 1 0
vn 0 1 0
vn 0 1 0
vn 0 1 0
vn 0 1 0
vn 0 1 0
vn 0 1 0
vn 0 1 0
vn 0 1 0
vn 0 1 0
vn 0 1 0
vn 0 1 0
vn 0 0.9999999999999999 0
vn 0 0.9999999999999999 0
vn 0 0.9999999999999999 0
vn 0 0.9999999999999999 0
vn 0 0.9999999999999999 0
vn 0 0.9999999999999999 0
vn 0 0.9999999999999999 0
vn 0 0.9999999999999999 0
vn 0 1 0
vn 0 1 0
vn 0 1 0
vn 0 1 0
vn 0 0.9999999999999999 0
vn 0 0.9999999999999999 0
vn 0 0.9999999999999999 0
vn 0 0.9999999999999999 0
vn 0 0.9999999999999999 0
vn 0 0.9999999999999999 0
vn 0 0.9999999999999999 0
vn 0 0.9999999999999999 0
vn 0 1 0
vn 0 1 0
vn 0 1 0
vn 0 1 0
vn 0 0.9999999999999999 0
vn 0 0.9999999999999999 0
vn 0 0.9999999999999999 0
vn 0 0.9999999999999999 0
vn 0 0.9999999999999999 0
vn 0 0.9999999999999999 0
vn 0 0.9999999999999999 0
vn 0 0.9999999999999999 0
vn 0 1 0
vn 0 1 0
vn 0 1 0
vn 0 1 0
vn 0 1 0
vn 0 1 0
vn 0 1 0
vn 0 1 0
vn 0 1 0
vn 0 1 0
vn 0 1 0
vn 0 1 0
vn 0 1 0
vn 0 1 0
vn 0 1 0
vn 0 1 0
vn 0 1 0
vn 0 1 0
vn 0 1 0
vn 0 1 0
vn 0 1 0
vn 0 1 0
vn 0 1 0
vn 0 1 0
vn 0 1 0
vn 0 1 0
vn 0 1 0
vn 0 1 0
vn 0 1 0
vn 0 1 0
vn 0 1 0
vn 0 1 0
vn 0 1 0
vn 0 1 0
vn 0 1 0
vn 0 1 0
vn 0 1 0
vn 0 1 0
vn 0 1 0
vn 0 1 0
vn 0 1 0
vn 0 1 0
vn 0 1 0
vn 0 1 0
vn 0 0.9999999999999999 0
vn 0 0.9999999999999999 0
vn 0 0.9999999999999999 0
vn 0 0.9999999999999999 0
vn 0 1 0
vn 0 1 0
vn 0 1 0
vn 0 1 0
vn 0 1 0
vn 0 1 0
vn 0 1 0
vn 0 1 0
vn 0 1 0
vn 0 1 0
vn 0 1 0
vn 0 1 0
vn 0 1 0
vn 0 1 0
vn 0 1 0
vn 0 1 0
vn 0 1 0
vn 0 1 0
vn 0 1 0
vn 0 1 0
vn 0 1 0
vn 0 1 0
vn 0 1 0
vn 0 1 0
vn 0 1 0
vn 0 1 0
vn 0 1 0
vn 0 1 0
vn 0 1 0
vn 0 1 0
vn 0 1 0
vn 0 1 0
vn 0 1 0
vn 0 1 0
vn 0 1 0
vn 0 1 0
vn 0 1 0
vn 0 1 0
vn 0 1 0
vn 0 1 0
vn 0 1 0
vn 0 1 0
vn 0 1 0
vn 0 1 0
vn 0 1 0
vn 0 1 0
vn 0 1 0
vn 0 1 0
vn 0 0.9999999999999999 0
vn 0 0.9999999999999999 0
vn 0 0.9999999999999999 0
vn 0 0.9999999999999999 0
vn 0 1 0
vn 0 1 0
vn 0 1 0
vn 0 1 0
vn 0 1 0
vn 0 1 0
vn 0 1 0
vn 0 1 0
vn 0 1 0
vn 0 1 0
vn 0 1 0
vn 0 1 0
vn 0 1 0
vn 0 1 0
vn 0 1 0
vn 0 1 0
vn 0 1 0
vn 0 1 0
vn 0 1 0
vn 0 1 0
vn 0 1 0
vn 0 1 0
vn 0 1 0
vn 0 1 0
vn 0 1 0
vn 0 1 0
vn 0 1 0
vn 0 1 0
vn 0 0.9999999999999999 0
vn 0 0.9999999999999999 0
vn 0 0.9999999999999999 0
vn 0 0.9999999999999999 0
vn 0 1 0
vn 0 1 0
vn 0 1 0
vn 0 1 0
vn 0 1 0
vn 0 1 0
vn 0 1 0
vn 0 1 0
vn 0 1 0
vn 0 1 0
vn 0 1 0
vn 0 1 0
vn 0 1 0
vn 0 1 0
vn 0 1 0
vn 0 1 0
vn 0 1 0
vn 0 1 0
vn 0 1 0
vn 0 1 0
vn 0 1 0
vn 0 1 0
vn 0 1 0
vn 0 1 0
vn 0 1 0
vn 0 1 0
vn 0 1 0
vn 0 1 0
vn 0 1 0
vn 0 1 0
vn 0 1 0
vn 0 1 0
vn 0 0.9999999999999999 0
vn 0 0.9999999999999999 0
vn 0 0.9999999999999999 0
vn 0 0.9999999999999999 0
vn 0 1 0
vn 0 1 0
vn 0 1 0
vn 0 1 0
vn 0 1 0
vn 0 1 0
vn 0 1 0
vn 0 1 0
vn 0 1 0
vn 0 1 0
vn 0 1 0
vn 0 1 0
vn 0 1 0
vn 0 1 0
vn 0 1 0
vn 0 1 0
vn 0 1 0
vn 0 1 0
vn 0 1 0
vn 0 1 0
vn 0 1 0
vn 0 1 0
vn 0 1 0
vn 0 1 0
vn 0 1 0
vn 0 1 0
vn 0 1 0
vn 0 1 0
vn 0 0.9999999999999999 0
vn 0 0.9999999999999999 0
vn 0 0.9999999999999999 0
vn 0 0.9999999999999999 0
vn 0 1 0
vn 0 1 0
vn 0 1 0
vn 0 1 0
vn 0 1 0
vn 0 1 0
vn 0 1 0
vn 0 1 0
vn 0 1 0
vn 0 1 0
vn 0 1 0
vn 0 1 0
vn 0 1 0
vn 0 1 0
vn 0 1 0
vn 0 1 0
vn 0 1 0
vn 0 1 0
vn 0 1 0
vn 0 1 0
vn 0 1 0
vn 0 1 0
vn 0 1 0
vn 0 1 0
vn 0 1 0
vn 0 1 0
vn 0 1 0
vn 0 1 0
vn 0 1 0
vn 0 1 0
vn 0 1 0
vn 0 1 0
vn 0 0.9999999999999999 0
vn 0 0.9999999999999999 0
vn 0 0.9999999999999999 0
vn 0 0.9999999999999999 0
vn 0 1 0
vn 0 1 0
vn 0 1 0
vn 0 1 0
vn 0 1 0
vn 0 1 0
vn 0 1 0
vn 0 1 0
vn 0 1 0
vn 0 1 0
vn 0 1 0
vn 0 1 0
vn 0 1 0
vn 0 1 0
vn 0 1 0
vn 0 1 0
vn 0 1 0
vn 0 1 0
vn 0 1 0
vn 0 1 0
vn 0 1 0
vn 0 1 0
vn 0 1 0
vn 0 1 0
vn 0 1 0
vn 0 1 0
vn 0 1 0
vn 0 1 0
vn 0 0.9999999999999999 0
vn 0 0.9999999999999999 0
vn 0 0.9999999999999999 0
vn 0 0.9999999999999999 0
vn 0 1 0
vn 0 1 0
vn 0 1 0
vn 0 1 0
vn 0 1 0
vn 0 1 0
vn 0 1 0
vn 0 1 0
vn 0 1 0
vn 0 1 0
vn 0 1 0
vn 0 1 0
vn 0 1 0
vn 0 1 0
vn 0 1 0
vn 0 1 0
vn 0 1 0
vn 0 1 0
vn 0 1 0
vn 0 1 0
vn 0 1 0
vn 0 1 0
vn 0 1 0
vn 0 1 0
vn 0 1 0
vn 0 1 0
vn 0 1 0
vn 0 1 0
vn 0 1 0
vn 0 1 0
vn 0 1 0
vn 0 1 0
vn 0 1 0
vn 0 1 0
vn 0 1 0
vn 0 1 0
vn 0 1 0
vn 0 1 0
vn 0 1 0
vn 0 1 0
vn 0 1 0
vn 0 1 0
vn 0 1 0
vn 0 1 0
vn 0 1 0
vn 0 1 0
vn 0 1 0
vn 0 1 0
vn 0 0.9999999999999999 0
vn 0 0.9999999999999999 0
vn 0 0.9999999999999999 0
vn 0 0.9999999999999999 0
vn 0 1 0
vn 0 1 0
vn 0 1 0
vn 0 1 0
vn 0 1 0
vn 0 1 0
vn 0 1 0
vn 0 1 0
vn 0 1 0
vn 0 1 0
vn 0 1 0
vn 0 1 0
vn 0 1 0
vn 0 1 0
vn 0 1 0
vn 0 1 0
vn 0 1 0
vn 0 1 0
vn 0 1 0
vn 0 1 0
vn 0 1 0
vn 0 1 0
vn 0 1 0
vn 0 1 0
vn 0 1 0
vn 0 1 0
vn 0 1 0
vn 0 1 0
vn 0 1 0
vn 0 1 0
vn 0 1 0
vn 0 1 0
vn 0 1 0
vn 0 1 0
vn 0 1 0
vn 0 1 0
vn 0 1 0
vn 0 1 0
vn 0 1 0
vn 0 1 0
vn 0 1 0
vn 0 1 0
vn 0 1 0
vn 0 1 0
vn 0 1 0
vn 0 1 0
vn 0 1 0
vn 0 1 0
vn 0 1 0
vn 0 1 0
vn 0 1 0
vn 0 1 0
vn 0 1 0
vn 0 1 0
vn 0 1 0
vn 0 1 0
vn 0 1 0
vn 0 1 0
vn 0 1 0
vn 0 1 0
vn 0 1 0
vn 0 1 0
vn 0 1 0
vn 0 1 0
vn 0 0.9999999999999999 0
vn 0 0.9999999999999999 0
vn 0 0.9999999999999999 0
vn 0 0.9999999999999999 0
vn 0 1 0
vn 0 1 0
vn 0 1 0
vn 0 1 0
vn 0 1 0
vn 0 1 0
vn 0 1 0
vn 0 1 0
vn 0 1 0
vn 0 1 0
vn 0 1 0
vn 0 1 0
vn 0 1 0
vn 0 1 0
vn 0 1 0
vn 0 1 0
vn 0 1 0
vn 0 1 0
vn 0 1 0
vn 0 1 0
vn 0 1 0
vn 0 1 0
vn 0 1 0
vn 0 1 0
vn 0 1 0
vn 0 1 0
vn 0 1 0
vn 0 1 0
vn 0 0.9999999999999999 0
vn 0 0.9999999999999999 0
vn 0 0.9999999999999999 0
vn 0 0.9999999999999999 0
vn 0 1 0
vn 0 1 0
vn 0 1 0
vn 0 1 0
vn 0 1 0
vn 0 1 0
vn 0 1 0
vn 0 1 0
vn 0 1 0
vn 0 1 0
vn 0 1 0
vn 0 1 0
vn 0 1 0
vn 0 1 0
vn 0 1 0
vn 0 1 0
vn 0 1 0
vn 0 1 0
vn 0 1 0
vn 0 1 0
vn 0 0.9999999999999999 0
vn 0 0.9999999999999999 0
vn 0 0.9999999999999999 0
vn 0 0.9999999999999999 0
vn 0 1 0
vn 0 1 0
vn 0 1 0
vn 0 1 0
vn 0 0.9999999999999999 0
vn 0 0.9999999999999999 0
vn 0 0.9999999999999999 0
vn 0 0.9999999999999999 0
vn 0 1 0
vn 0 1 0
vn 0 1 0
vn 0 1 0
vn 0 1 0
vn 0 1 0
vn 0 1 0
vn 0 1 0
vn 0 0.9999999999999999 0
vn 0 0.9999999999999999 0
vn 0 0.9999999999999999 0
vn 0 0.9999999999999999 0
vn 0 1 0
vn 0 1 0
vn 0 1 0
vn 0 1 0
vn 0 0.9999999999999999 0
vn 0 0.9999999999999999 0
vn 0 0.9999999999999999 0
vn 0 0.9999999999999999 0
vn 0 1 0
vn 0 1 0
vn 0 1 0
vn 0 1 0
vn 0 1 0
vn 0 1 0
vn 0 1 0
vn 0 1 0
vn 0 1 0
vn 0 1 0
vn 0 1 0
vn 0 1 0
vn 0 1 0
vn 0 1 0
vn 0 1 0
vn 0 1 0
vn 0 1 0
vn 0 1 0
vn 0 1 0
vn 0 1 0
vn 0 1 0
vn 0 1 0
vn 0 1 0
vn 0 1 0
vn 0 1 0
vn 0 1 0
vn 0 1 0
vn 0 1 0
vn 0 1 0
vn 0 1 0
vn 0 1 0
vn 0 1 0
vn 0 1 0
vn 0 1 0
vn 0 1 0
vn 0 1 0
vn 0 1 0
vn 0 1 0
vn 0 1 0
vn 0 1 0
vn 0 1 0
vn 0 1 0
vn 0 1 0
vn 0 1 0
vn 0 1 0
vn 0 1 0
vn 0 1 0
vn 0 1 0
vn 0 0.9999999999999999 0
vn 0 0.9999999999999999 0
vn 0 0.9999999999999999 0
vn 0 0.9999999999999999 0
vn 0 1 0
vn 0 1 0
vn 0 1 0
vn 0 1 0
vn 0 1 0
vn 0 1 0
vn 0 1 0
vn 0 1 0
vn 0 1 0
vn 0 1 0
vn 0 1 0
vn 0 1 0
vn 0 1 0
vn 0 1 0
vn 0 1 0
vn 0 1 0
vn 0 1 0
vn 0 1 0
vn 0 1 0
vn 0 1 0
vn 0 1 0
vn 0 1 0
vn 0 1 0
vn 0 1 0
# 1156 normals
usemtl #ff9d5baa
f 1/4/4 2/3/3 3/2/2 4/1/1 
f 5/12/12 7/11/11 8/10/10 6/9/9 
f 9/20/20 11/19/19 12/18/18 10/17/17 
f 13/28/28 15/27/27 16/26/26 14/25/25 
f 17/36/36 19/35/35 20/34/34 18/33/33 
f 21/44/44 23/43/43 24/42/42 22/41/41 
f 25/52/52 27/51/51 28/50/50 26/49/49 
f 29/60/60 31/59/59 32/58/58 30/57/57 
f 33/68/68 35/67/67 36/66/66 34/65/65 
f 3/76/76 6/75/75 39/74/74 37/73/73 
f 8/84/84 10/83/83 41/82/82 40/81/81 
f 12/92/92 14/91/91 43/90/90 42/89/89 
f 16/100/100 18/99/99 45/98/98 44/97/97 
f 20/108/108 22/107/107 47/106/106 46/105/105 
f 24/116/116 26/115/115 49/114/114 48/113/113 
f 28/124/124 30/123/123 51/122/122 50/121/121 
f 32/132/132 34/131/131 53/130/130 52/129/129 
f 38/140/140 37/139/139 55/138/138 56/137/137 
f 39/148/148 40/147/147 58/146/146 57/145/145 
f 41/156/156 42/155/155 60/154/154 59/153/153 
f 43/164/164 44/163/163 62/162/162 61/161/161 
f 45/172/172 46/171/171 64/170/170 63/169/169 
f 47/180/180 48/179/179 66/178/178 65/177/177 
f 49/188/188 50/187/187 68/186/186 67/185/185 
f 51/196/196 52/195/195 70/194/194 69/193/193 
f 53/204/204 54/203/203 72/202/202 71/201/201 
f 55/212/212 57/211/211 75/210/210 73/209/209 
f 58/220/220 59/219/219 77/218/218 76/217/217 
f 60/228/228 61/227/227 79/226/226 78/225/225 
f 62/236/236 63/235/235 81/234/234 80/233/233 
f 64/244/244 65/243/243 83/242/242 82/241/241 
f 66/252/252 67/251/251 85/250/250 84/249/249 
f 68/260/260 69/259/259 87/258/258 86/257/257 
f 70/268/268 71/267/267 89/266/266 88/265/265 
f 74/276/276 73/275/275 91/274/274 92/273/273 
f 75/284/284 76/283/283 94/282/282 93/281/281 
f 77/292/292 78/291/291 96/290/290 95/289/289 
f 79/300/300 80/299/299 98/298/298 97/297/297 
f 81/308/308 82/307/307 100/306/306 99/305/305 
f 83/316/316 84/315/315 102/314/314 101/313/313 
f 85/324/324 86/323/323 104/322/322 103/321/321 
f 87/332/332 88/331/331 106/330/330 105/329/329 
f 89/340/340 90/339/339 108/338/338 107/337/337 
f 91/348/348 93/347/347 111/346/346 109/345/345 
f 94/356/356 95/355/355 113/354/354 112/353/353 
f 96/364/364 97/363/363 115/362/362 114/361/361 
f 98/372/372 99/371/371 117/370/370 116/369/369 
f 100/380/380 101/379/379 119/378/378 118/377/377 
f 102/388/388 103/387/387 121/386/386 120/385/385 
f 104/396/396 105/395/395 123/394/394 122/393/393 
f 106/404/404 107/403/403 125/402/402 124/401/401 
f 110/412/412 109/411/411 127/410/410 128/409/409 
f 111/420/420 112/419/419 130/418/418 129/417/417 
f 113/428/428 114/427/427 132/426/426 131/425/425 
f 115/436/436 116/435/435 134/434/434 133/433/433 
f 117/444/444 118/443/443 136/442/442 135/441/441 
f 119/452/452 120/451/451 138/450/450 137/449/449 
f 121/460/460 122/459/459 140/458/458 139/457/457 
f 123/468/468 124/467/467 142/466/466 141/465/465 
f 125/476/476 126/475/475 144/474/474 143/473/473 
f 127/484/484 129/483/483 147/482/482 145/481/481 
f 130/492/492 131/491/491 149/490/490 148/489/489 
f 132/500/500 133/499/499 151/498/498 150/497/497 
f 134/508/508 135/507/507 153/506/506 152/505/505 
f 136/516/516 137/515/515 155/514/514 154/513/513 
f 138/524/524 139/523/523 157/522/522 156/521/521 
f 140/532/532 141/531/531 159/530/530 158/529/529 
f 142/540/540 143/539/539 161/538/538 160/537/537 
f 146/548/548 145/547/547 163/546/546 164/545/545 
f 147/556/556 148/555/555 166/554/554 165/553/553 
f 149/564/564 150/563/563 168/562/562 167/561/561 
f 151/572/572 152/571/571 170/570/570 169/569/569 
f 153/580/580 154/579/579 172/578/578 171/577/577 
f 155/588/588 156/587/587 174/586/586 173/585/585 
f 157/596/596 158/595/595 176/594/594 175/593/593 
f 159/604/604 160/603/603 178/602/602 177/601/601 
f 161/612/612 162/611/611 180/610/610 179/609/609 
f 163/620/620 165/619/619 183/618/618 181/617/617 
f 166/628/628 167/627/627 185/626/626 184/625/625 
f 168/636/636 169/635/635 187/634/634 186/633/633 
f 170/644/644 171/643/643 189/642/642 188/641/641 
f 172/652/652 173/651/651 191/650/650 190/649/649 
f 174/660/660 175/659/659 193/658/658 192/657/657 
f 176/668/668 177/667/667 195/666/666 194/665/665 
f 178/676/676 179/675/675 197/674/674 196/673/673 
f 182/684/684 181/683/683 199/682/682 200/681/681 
f 183/692/692 184/691/691 202/690/690 201/689/689 
f 185/700/700 186/699/699 204/698/698 203/697/697 
f 187/708/708 188/707/707 206/706/706 205/705/705 
f 189/716/716 190/715/715 208/714/714 207/713/713 
f 191/724/724 192/723/723 210/722/722 209/721/721 
f 193/732/732 194/731/731 212/730/730 211/729/729 
f 195/740/740 196/739/739 214/738/738 213/737/737 
f 197/748/748 198/747/747 216/746/746 215/745/745 
f 199/756/756 201/755/755 219/754/754 217/753/753 
f 202/764/764 203/763/763 221/762/762 220/761/761 
f 204/772/772 205/771/771 223/770/770 222/769/769 
f 206/780/780 207/779/779 225/778/778 224/777/777 
f 208/788/788 209/787/787 227/786/786 226/785/785 
f 210/796/796 211/795/795 229/794/794 228/793/793 
f 212/804/804 213/803/803 231/802/802 230/801/801 
f 214/812/812 215/811/811 233/810/810 232/809/809 
f 218/820/820 217/819/819 235/818/818 236/817/817 
f 219/828/828 220/827/827 238/826/826 237/825/825 
f 221/836/836 222/835/835 240/834/834 239/833/833 
f 223/844/844 224/843/843 242/842/842 241/841/841 
f 225/852/852 226/851/851 244/850/850 243/849/849 
f 227/860/860 228/859/859 246/858/858 245/857/857 
f 229/868/868 230/867/867 248/866/866 247/865/865 
f 231/876/876 232/875/875 250/874/874 249/873/873 
f 233/884/884 234/883/883 252/882/882 251/881/881 
f 235/892/892 237/891/891 255/890/890 253/889/889 
f 238/900/900 239/899/899 257/898/898 256/897/897 
f 240/908/908 241/907/907 259/906/906 258/905/905 
f 242/916/916 243/915/915 261/914/914 260/913/913 
f 244/924/924 245/923/923 263/922/922 262/921/921 
f 246/932/932 247/931/931 265/930/930 264/929/929 
f 248/940/940 249/939/939 267/938/938 266/937/937 
f 250/948/948 251/947/947 269/946/946 268/945/945 
f 254/956/956 253/955/955 271/954/954 272/953/953 
f 255/964/964 256/963/963 274/962/962 273/961/961 
f 257/972/972 258/971/971 276/970/970 275/969/969 
f 259/980/980 260/979/979 278/978/978 277/977/977 
f 261/988/988 262/987/987 280/986/986 279/985/985 
f 263/996/996 264/995/995 282/994/994 281/993/993 
f 265/1004/1004 266/1003/1003 284/1002/1002 283/1001/1001 
f 267/1012/1012 268/1011/1011 286/1010/1010 285/1009/1009 
f 269/1020/1020 270/1019/1019 288/1018/1018 287/1017/1017 
f 271/1028/1028 273/1027/1027 291/1026/1026 289/1025/1025 
f 274/1036/1036 275/1035/1035 293/1034/1034 292/1033/1033 
f 276/1044/1044 277/1043/1043 295/1042/1042 294/1041/1041 
f 278/1052/1052 279/1051/1051 297/1050/1050 296/1049/1049 
f 280/1060/1060 281/1059/1059 299/1058/1058 298/1057/1057 
f 282/1068/1068 283/1067/1067 301/1066/1066 300/1065/1065 
f 284/1076/1076 285/1075/1075 303/1074/1074 302/1073/1073 
f 286/1084/1084 287/1083/1083 305/1082/1082 304/1081/1081 
f 290/1092/1092 289/1091/1091 307/1090/1090 308/1089/1089 
f 291/1100/1100 292/1099/1099 310/1098/1098 309/1097/1097 
f 293/1108/1108 294/1107/1107 312/1106/1106 311/1105/1105 
f 295/1116/1116 296/1115/1115 314/1114/1114 313/1113/1113 
f 297/1124/1124 298/1123/1123 316/1122/1122 315/1121/1121 
f 299/1132/1132 300/1131/1131 318/1130/1130 317/1129/1129 
f 301/1140/1140 302/1139/1139 320/1138/1138 319/1137/1137 
f 303/1148/1148 304/1147/1147 322/1146/1146 321/1145/1145 
f 305/1156/1156 306/1155/1155 324/1154/1154 323/1153/1153 
usemtl #ff9ec4e7
f 2/8/8 5/7/7 6/6/6 3/5/5 
f 7/16/16 9/15/15 10/14/14 8/13/13 
f 11/24/24 13/23/23 14/22/22 12/21/21 
f 15/32/32 17/31/31 18/30/30 16/29/29 
f 19/40/40 21/39/39 22/38/38 20/37/37 
f 23/48/48 25/47/47 26/46/46 24/45/45 
f 27/56/56 29/55/55 30/54/54 28/53/53 
f 31/64/64 33/63/63 34/62/62 32/61/61 
f 4/72/72 3/71/71 37/70/70 38/69/69 
f 6/80/80 8/79/79 40/78/78 39/77/77 
f 10/88/88 12/87/87 42/86/86 41/85/85 
f 14/96/96 16/95/95 44/94/94 43/93/93 
f 18/104/104 20/103/103 46/102/102 45/101/101 
f 22/112/112 24/111/111 48/110/110 47/109/109 
f 26/120/120 28/119/119 50/118/118 49/117/117 
f 30/128/128 32/127/127 52/126/126 51/125/125 
f 34/136/136 36/135/135 54/134/134 53/133/133 
f 37/144/144 39/143/143 57/142/142 55/141/141 
f 40/152/152 41/151/151 59/150/150 58/149/149 
f 42/160/160 43/159/159 61/158/158 60/157/157 
f 44/168/168 45/167/167 63/166/166 62/165/165 
f 46/176/176 47/175/175 65/174/174 64/173/173 
f 48/184/184 49/183/183 67/182/182 66/181/181 
f 50/192/192 51/191/191 69/190/190 68/189/189 
f 52/200/200 53/199/199 71/198/198 70/197/197 
f 56/208/208 55/207/207 73/206/206 74/205/205 
f 57/216/216 58/215/215 76/214/214 75/213/213 
f 59/224/224 60/223/223 78/222/222 77/221/221 
f 61/232/232 62/231/231 80/230/230 79/229/229 
f 63/240/240 64/239/239 82/238/238 81/237/237 
f 65/248/248 66/247/247 84/246/246 83/245/245 
f 67/256/256 68/255/255 86/254/254 85/253/253 
f 69/264/264 70/263/263 88/262/262 87/261/261 
f 71/272/272 72/271/271 90/270/270 89/269/269 
f 73/280/280 75/279/279 93/278/278 91/277/277 
f 76/288/288 77/287/287 95/286/286 94/285/285 
f 78/296/296 79/295/295 97/294/294 96/293/293 
f 80/304/304 81/303/303 99/302/302 98/301/301 
f 82/312/312 83/311/311 101/310/310 100/309/309 
f 84/320/320 85/319/319 103/318/318 102/317/317 
f 86/328/328 87/327/327 105/326/326 104/325/325 
f 88/336/336 89/335/335 107/334/334 106/333/333 
f 92/344/344 91/343/343 109/342/342 110/341/341 
f 93/352/352 94/351/351 112/350/350 111/349/349 
f 95/360/360 96/359/359 114/358/358 113/357/357 
f 97/368/368 98/367/367 116/366/366 115/365/365 
f 99/376/376 100/375/375 118/374/374 117/373/373 
f 101/384/384 102/383/383 120/382/382 119/381/381 
f 103/392/392 104/391/391 122/390/390 121/389/389 
f 105/400/400 106/399/399 124/398/398 123/397/397 
f 107/408/408 108/407/407 126/406/406 125/405/405 
f 109/416/416 111/415/415 129/414/414 127/413/413 
f 112/424/424 113/423/423 131/422/422 130/421/421 
f 114/432/432 115/431/431 133/430/430 132/429/429 
f 116/440/440 117/439/439 135/438/438 134/437/437 
f 118/448/448 119/447/447 137/446/446 136/445/445 
f 120/456/456 121/455/455 139/454/454 138/453/453 
f 122/464/464 123/463/463 141/462/462 140/461/461 
f 124/472/472 125/471/471 143/470/470 142/469/469 
f 128/480/480 127/479/479 145/478/478 146/477/477 
f 129/488/488 130/487/487 148/486/486 147/485/485 
f 131/496/496 132/495/495 150/494/494 149/493/493 
f 133/504/504 134/503/503 152/502/502 151/501/501 
f 135/512/512 136/511/511 154/510/510 153/509/509 
f 137/520/520 138/519/519 156/518/518 155/517/517 
f 139/528/528 140/527/527 158/526/526 157/525/525 
f 141/536/536 142/535/535 160/534/534 159/533/533 
f 143/544/544 144/543/543 162/542/542 161/541/541 
f 145/552/552 147/551/551 165/550/550 163/549/549 
f 148/560/560 149/559/559 167/558/558 166/557/557 
f 150/568/568 151/567/567 169/566/566 168/565/565 
f 152/576/576 153/575/575 171/574/574 170/573/573 
f 154/584/584 155/583/583 173/582/582 172/581/581 
f 156/592/592 157/591/591 175/590/590 174/589/589 
f 158/600/600 159/599/599 177/598/598 176/597/597 
f 160/608/608 161/607/607 179/606/606 178/605/605 
f 164/616/616 163/615/615 181/614/614 182/613/613 
f 165/624/624 166/623/623 184/622/622 183/621/621 
f 167/632/632 168/631/631 186/630/630 185/629/629 
f 169/640/640 170/639/639 188/638/638 187/637/637 
f 171/648/648 172/647/647 190/646/646 189/645/645 
f 173/656/656 174/655/655 192/654/654 191/653/653 
f 175/664/664 176/663/663 194/662/662 193/661/661 
f 177/672/672 178/671/671 196/670/670 195/669/669 
f 179/680/680 180/679/679 198/678/678 197/677/677 
f 181/688/688 183/687/687 201/686/686 199/685/685 
f 184/696/696 185/695/695 203/694/694 202/693/693 
f 186/704/704 187/703/703 205/702/702 204/701/701 
f 188/712/712 189/711/711 207/710/710 206/709/709 
f 190/720/720 191/719/719 209/718/718 208/717/717 
f 192/728/728 193/727/727 211/726/726 210/725/725 
f 194/736/736 195/735/735 213/734/734 212/733/733 
f 196/744/744 197/743/743 215/742/742 214/741/741 
f 200/752/752 199/751/751 217/750/750 218/749/749 
f 201/760/760 202/759/759 220/758/758 219/757/757 
f 203/768/768 204/767/767 222/766/766 221/765/765 
f 205/776/776 206/775/775 224/774/774 223/773/773 
f 207/784/784 208/783/783 226/782/782 225/781/781 
f 209/792/792 210/791/791 228/790/790 227/789/789 
f 211/800/800 212/799/799 230/798/798 229/797/797 
f 213/808/808 214/807/807 232/806/806 231/805/805 
f 215/816/816 216/815/815 234/814/814 233/813/813 
f 217/824/824 219/823/823 237/822/822 235/821/821 
f 220/832/832 221/831/831 239/830/830 238/829/829 
f 222/840/840 223/839/839 241/838/838 240/837/837 
f 224/848/848 225/847/847 243/846/846 242/845/845 
f 226/856/856 227/855/855 245/854/854 244/853/853 
f 228/864/864 229/863/863 247/862/862 246/861/861 
f 230/872/872 231/871/871 249/870/870 248/869/869 
f 232/880/880 233/879/879 251/878/878 250/877/877 
f 236/888/888 235/887/887 253/886/886 254/885/885 
f 237/896/896 238/895/895 256/894/894 255/893/893 
f 239/904/904 240/903/903 258/902/902 257/901/901 
f 241/912/912 242/911/911 260/910/910 259/909/909 
f 243/920/920 244/919/919 262/918/918 261/917/917 
f 245/928/928 246/927/927 264/926/926 263/925/925 
f 247/936/936 248/935/935 266/934/934 265/933/933 
f 249/944/944 250/943/943 268/942/942 267/941/941 
f 251/952/952 252/951/951 270/950/950 269/949/949 
f 253/960/960 255/959/959 273/958/958 271/957/957 
f 256/968/968 257/967/967 275/966/966 274/965/965 
f 258/976/976 259/975/975 277/974/974 276/973/973 
f 260/984/984 261/983/983 279/982/982 278/981/981 
f 262/992/992 263/991/991 281/990/990 280/989/989 
f 264/1000/1000 265/999/999 283/998/998 282/997/997 
f 266/1008/1008 267/1007/1007 285/1006/1006 284/1005/1005 
f 268/1016/1016 269/1015/1015 287/1014/1014 286/1013/1013 
f 272/1024/1024 271/1023/1023 289/1022/1022 290/1021/1021 
f 273/1032/1032 274/1031/1031 292/1030/1030 291/1029/1029 
f 275/1040/1040 276/1039/1039 294/1038/1038 293/1037/1037 
f 277/1048/1048 278/1047/1047 296/1046/1046 295/1045/1045 
f 279/1056/1056 280/1055/1055 298/1054/1054 297/1053/1053 
f 281/1064/1064 282/1063/1063 300/1062/1062 299/1061/1061 
f 283/1072/1072 284/1071/1071 302/1070/1070 301/1069/1069 
f 285/1080/1080 286/1079/1079 304/1078/1078 303/1077/1077 
f 287/1088/1088 288/1087/1087 306/1086/1086 305/1085/1085 
f 289/1096/1096 291/1095/1095 309/1094/1094 307/1093/1093 
f 292/1104/1104 293/1103/1103 311/1102/1102 310/1101/1101 
f 294/1112/1112 295/1111/1111 313/1110/1110 312/1109/1109 
f 296/1120/1120 297/1119/1119 315/1118/1118 314/1117/1117 
f 298/1128/1128 299/1127/1127 317/1126/1126 316/1125/1125 
f 300/1136/1136 301/1135/1135 319/1134/1134 318/1133/1133 
f 302/1144/1144 303/1143/1143 321/1142/1142 320/1141/1141 
f 304/1152/1152 305/1151/1151 323/1150/1150 322/1149/1149 
# 289 polygons